MozillaHeadline-BoldItalic.ufo
<glyph name="exclam" format="1">
  <advance width="261"/>
  <unicode hex="0021"/>
  <outline>
    <contour>
      <point x="76" y="191" type="line"/>
      <point x="160" y="191" type="line"/>
      <point x="261" y="583" type="line"/>
      <point x="279" y="690" type="line"/>
      <point x="125" y="690" type="line"/>
      <point x="107" y="583" type="line"/>
    </contour>
    <contour>
      <point x="9" y="0" type="line"/>
      <point x="162" y="0" type="line"/>
      <point x="187" y="147" type="line"/>
      <point x="34" y="147" type="line"/>
    </contour>
  </outline>
</glyph>
<glyph name="numbersign" format="1">
  <advance width="630"/>
  <unicode hex="0023"/>
  <outline>
    <contour>
      <point x="23" y="0" type="line"/>
      <point x="147" y="0" type="line"/>
      <point x="377" y="690" type="line"/>
      <point x="253" y="690" type="line"/>
    </contour>
    <contour>
      <point x="279" y="0" type="line"/>
      <point x="403" y="0" type="line"/>
      <point x="633" y="690" type="line"/>
      <point x="509" y="690" type="line"/>
    </contour>
    <contour>
      <point x="88" y="413" type="line"/>
      <point x="627" y="413" type="line"/>
      <point x="645" y="524" type="line"/>
      <point x="106" y="524" type="line"/>
    </contour>
    <contour>
      <point x="10" y="166" type="line"/>
      <point x="550" y="166" type="line"/>
      <point x="568" y="277" type="line"/>
      <point x="29" y="277" type="line"/>
    </contour>
  </outline>
</glyph>
<glyph name="dollar" format="1">
  <advance width="616"/>
  <unicode hex="0024"/>
  <outline>
    <contour>
      <point x="303" y="-4" type="curve" smooth="yes"/>
      <point x="454" y="-4"/>
      <point x="545" y="51"/>
      <point x="566" y="173" type="curve" smooth="yes"/>
      <point x="584" y="283"/>
      <point x="539" y="351"/>
      <point x="414" y="389" type="curve" smooth="yes"/>
      <point x="300" y="420" type="line" smooth="yes"/>
      <point x="236" y="438"/>
      <point x="218" y="463"/>
      <point x="225" y="503" type="curve" smooth="yes"/>
      <point x="228" y="518" type="line" smooth="yes"/>
      <point x="235" y="561"/>
      <point x="268" y="582"/>
      <point x="347" y="582" type="curve" smooth="yes"/>
      <point x="436" y="582"/>
      <point x="480" y="541"/>
      <point x="469" y="475" type="curve" smooth="yes"/>
      <point x="464" y="448" type="line"/>
      <point x="609" y="448" type="line"/>
      <point x="617" y="632"/>
      <point x="520" y="694"/>
      <point x="340" y="694" type="curve" smooth="yes"/>
      <point x="191" y="694"/>
      <point x="99" y="638"/>
      <point x="80" y="517" type="curve" smooth="yes"/>
      <point x="62" y="407"/>
      <point x="105" y="338"/>
      <point x="229" y="300" type="curve" smooth="yes"/>
      <point x="344" y="270" type="line" smooth="yes"/>
      <point x="407" y="251"/>
      <point x="427" y="227"/>
      <point x="421" y="187" type="curve" smooth="yes"/>
      <point x="418" y="172" type="line" smooth="yes"/>
      <point x="410" y="131"/>
      <point x="375" y="108"/>
      <point x="295" y="108" type="curve" smooth="yes"/>
      <point x="204" y="108"/>
      <point x="160" y="148"/>
      <point x="171" y="215" type="curve" smooth="yes"/>
      <point x="176" y="242" type="line"/>
      <point x="30" y="242" type="line"/>
      <point x="21" y="60"/>
      <point x="119" y="-4"/>
    </contour>
    <contour>
      <point x="197" y="-92" type="line"/>
      <point x="302" y="-92" type="line"/>
      <point x="321" y="24" type="line"/>
      <point x="216" y="24" type="line"/>
    </contour>
    <contour>
      <point x="319" y="655" type="line"/>
      <point x="424" y="655" type="line"/>
      <point x="446" y="782" type="line"/>
      <point x="340" y="782" type="line"/>
    </contour>
  </outline>
</glyph>
<glyph name="percent" format="1">
  <advance width="782"/>
  <unicode hex="0025"/>
  <outline>
    <contour>
      <point x="8" y="0" type="line"/>
      <point x="141" y="0" type="line"/>
      <point x="402" y="322" type="line"/>
      <point x="268" y="322" type="line"/>
    </contour>
    <contour>
      <point x="406" y="368" type="line"/>
      <point x="539" y="368" type="line"/>
      <point x="800" y="690" type="line"/>
      <point x="666" y="690" type="line"/>
    </contour>
    <contour>
      <point x="249" y="360" type="curve" smooth="yes"/>
      <point x="362" y="360"/>
      <point x="435" y="424"/>
      <point x="451" y="519" type="curve" smooth="yes"/>
      <point x="470" y="634"/>
      <point x="388" y="700"/>
      <point x="272" y="700" type="curve" smooth="yes"/>
      <point x="159" y="700"/>
      <point x="86" y="636"/>
      <point x="70" y="541" type="curve" smooth="yes"/>
      <point x="51" y="426"/>
      <point x="133" y="360"/>
    </contour>
    <contour>
      <point x="250" y="443" type="curve" smooth="yes"/>
      <point x="201" y="443"/>
      <point x="177" y="470"/>
      <point x="184" y="513" type="curve" smooth="yes"/>
      <point x="191" y="553" type="line" smooth="yes"/>
      <point x="197" y="595"/>
      <point x="222" y="617"/>
      <point x="271" y="617" type="curve" smooth="yes"/>
      <point x="321" y="617"/>
      <point x="344" y="589"/>
      <point x="337" y="547" type="curve" smooth="yes"/>
      <point x="330" y="507" type="line" smooth="yes"/>
      <point x="324" y="465"/>
      <point x="300" y="443"/>
    </contour>
    <contour>
      <point x="536" y="-10" type="curve" smooth="yes"/>
      <point x="649" y="-10"/>
      <point x="722" y="54"/>
      <point x="738" y="149" type="curve" smooth="yes"/>
      <point x="757" y="264"/>
      <point x="675" y="330"/>
      <point x="558" y="330" type="curve" smooth="yes"/>
      <point x="445" y="330"/>
      <point x="372" y="266"/>
      <point x="357" y="171" type="curve" smooth="yes"/>
      <point x="338" y="56"/>
      <point x="419" y="-10"/>
    </contour>
    <contour>
      <point x="537" y="73" type="curve" smooth="yes"/>
      <point x="487" y="73"/>
      <point x="464" y="100"/>
      <point x="471" y="143" type="curve" smooth="yes"/>
      <point x="477" y="183" type="line" smooth="yes"/>
      <point x="484" y="225"/>
      <point x="508" y="247"/>
      <point x="558" y="247" type="curve" smooth="yes"/>
      <point x="607" y="247"/>
      <point x="630" y="219"/>
      <point x="623" y="177" type="curve" smooth="yes"/>
      <point x="617" y="137" type="line" smooth="yes"/>
      <point x="610" y="95"/>
      <point x="586" y="73"/>
    </contour>
  </outline>
</glyph>
<glyph name="ampersand" format="1">
  <advance width="685"/>
  <unicode hex="0026"/>
  <outline>
    <contour>
      <point x="209" y="393" type="curve" smooth="yes"/>
      <point x="406" y="0" type="line"/>
      <point x="605" y="0" type="line"/>
      <point x="623" y="107" type="line"/>
      <point x="515" y="107" type="line"/>
      <point x="327" y="468" type="line" smooth="yes"/>
      <point x="310" y="499"/>
      <point x="305" y="516"/>
      <point x="308" y="537" type="curve" smooth="yes"/>
      <point x="314" y="568"/>
      <point x="336" y="583"/>
      <point x="373" y="583" type="curve" smooth="yes"/>
      <point x="490" y="583" type="line"/>
      <point x="473" y="483" type="line"/>
      <point x="595" y="483" type="line"/>
      <point x="630" y="690" type="line"/>
      <point x="374" y="690" type="line" smooth="yes"/>
      <point x="250" y="690"/>
      <point x="183" y="648"/>
      <point x="168" y="552" type="curve" smooth="yes"/>
      <point x="159" y="501"/>
      <point x="175" y="452"/>
    </contour>
    <contour>
      <point x="176" y="-10" type="curve" smooth="yes"/>
      <point x="253" y="-10"/>
      <point x="309" y="27"/>
      <point x="328" y="84" type="curve"/>
      <point x="368" y="84" type="line"/>
      <point x="353" y="124" type="line"/>
      <point x="316" y="108"/>
      <point x="278" y="100"/>
      <point x="246" y="100" type="curve" smooth="yes"/>
      <point x="189" y="100"/>
      <point x="163" y="129"/>
      <point x="172" y="185" type="curve" smooth="yes"/>
      <point x="178" y="220" type="line" smooth="yes"/>
      <point x="186" y="268"/>
      <point x="213" y="288"/>
      <point x="273" y="290" type="curve"/>
      <point x="244" y="379" type="line"/>
      <point x="111" y="368"/>
      <point x="43" y="313"/>
      <point x="24" y="199" type="curve" smooth="yes"/>
      <point x="-1" y="54"/>
      <point x="66" y="-10"/>
    </contour>
    <contour>
      <point x="493" y="144" type="line"/>
      <point x="579" y="166"/>
      <point x="614" y="206"/>
      <point x="627" y="281" type="curve" smooth="yes"/>
      <point x="645" y="392" type="line"/>
      <point x="523" y="392" type="line"/>
      <point x="493" y="214" type="line"/>
      <point x="444" y="214" type="line"/>
    </contour>
  </outline>
</glyph>
<glyph name="quotesingle" format="1">
  <advance width="212"/>
  <unicode hex="0027"/>
  <outline>
    <contour>
      <point x="104" y="444" type="line"/>
      <point x="166" y="444" type="line"/>
      <point x="236" y="620" type="line"/>
      <point x="248" y="690" type="line"/>
      <point x="105" y="690" type="line"/>
      <point x="93" y="620" type="line"/>
    </contour>
  </outline>
</glyph>
<glyph name="parenright" format="1">
  <advance width="306"/>
  <unicode hex="0029"/>
  <outline>
    <contour>
      <point x="177" y="782" type="curve"/>
      <point x="64" y="782" type="line"/>
      <point x="138" y="642"/>
      <point x="151" y="539"/>
      <point x="127" y="382" type="curve" smooth="yes"/>
      <point x="116" y="308" type="line" smooth="yes"/>
      <point x="92" y="151"/>
      <point x="39" y="48"/>
      <point x="-82" y="-92" type="curve"/>
      <point x="42" y="-92" type="line"/>
      <point x="158" y="19"/>
      <point x="224" y="149"/>
      <point x="255" y="338" type="curve" smooth="yes"/>
      <point x="286" y="525"/>
      <point x="265" y="661"/>
    </contour>
  </outline>
</glyph>
<glyph name="asterisk" format="1">
  <advance width="436"/>
  <unicode hex="002A"/>
  <outline>
    <contour>
      <point x="69" y="516" type="line"/>
      <point x="139" y="492" type="line"/>
      <point x="229" y="501" type="line"/>
      <point x="230" y="494" type="line"/>
      <point x="143" y="458" type="line"/>
      <point x="87" y="395" type="line"/>
      <point x="164" y="327" type="line"/>
      <point x="219" y="390" type="line"/>
      <point x="249" y="478" type="line"/>
      <point x="257" y="478" type="line"/>
      <point x="257" y="390" type="line"/>
      <point x="292" y="326" type="line"/>
      <point x="389" y="385" type="line"/>
      <point x="354" y="448" type="line"/>
      <point x="280" y="494" type="line"/>
      <point x="283" y="501" type="line"/>
      <point x="372" y="483" type="line"/>
      <point x="451" y="507" type="line"/>
      <point x="434" y="614" type="line"/>
      <point x="356" y="590" type="line"/>
      <point x="280" y="525" type="line"/>
      <point x="275" y="529" type="line"/>
      <point x="329" y="612" type="line"/>
      <point x="342" y="690" type="line"/>
      <point x="235" y="690" type="line"/>
      <point x="222" y="612" type="line"/>
      <point x="249" y="529" type="line"/>
      <point x="242" y="525" type="line"/>
      <point x="188" y="590" type="line"/>
      <point x="118" y="614" type="line"/>
    </contour>
  </outline>
</glyph>
<glyph name="plus" format="1">
  <advance width="474"/>
  <unicode hex="002B"/>
  <outline>
    <contour>
      <point x="158" y="120" type="line"/>
      <point x="267" y="120" type="line"/>
      <point x="340" y="554" type="line"/>
      <point x="231" y="554" type="line"/>
    </contour>
    <contour>
      <point x="28" y="286" type="line"/>
      <point x="453" y="286" type="line"/>
      <point x="470" y="388" type="line"/>
      <point x="45" y="388" type="line"/>
    </contour>
  </outline>
</glyph>
<glyph name="slash" format="1">
  <advance width="379"/>
  <unicode hex="002F"/>
  <outline>
    <contour>
      <point x="-43" y="-92" type="line"/>
      <point x="96" y="-92" type="line"/>
      <point x="447" y="782" type="line"/>
      <point x="309" y="782" type="line"/>
    </contour>
  </outline>
</glyph>
<glyph name="zero" format="1">
  <advance width="660"/>
  <unicode hex="0030"/>
  <outline>
    <contour>
      <point x="311" y="-10" type="curve" smooth="yes"/>
      <point x="484" y="-10"/>
      <point x="588" y="92"/>
      <point x="628" y="328" type="curve" smooth="yes"/>
      <point x="671" y="589"/>
      <point x="574" y="700"/>
      <point x="375" y="700" type="curve" smooth="yes"/>
      <point x="202" y="700"/>
      <point x="98" y="598"/>
      <point x="59" y="362" type="curve" smooth="yes"/>
      <point x="15" y="101"/>
      <point x="113" y="-10"/>
    </contour>
    <contour>
      <point x="310" y="101" type="curve" smooth="yes"/>
      <point x="215" y="101"/>
      <point x="175" y="154"/>
      <point x="194" y="268" type="curve" smooth="yes"/>
      <point x="221" y="427" type="line" smooth="yes"/>
      <point x="240" y="542"/>
      <point x="281" y="589"/>
      <point x="376" y="589" type="curve" smooth="yes"/>
      <point x="471" y="589"/>
      <point x="512" y="536"/>
      <point x="492" y="422" type="curve" smooth="yes"/>
      <point x="465" y="263" type="line" smooth="yes"/>
      <point x="446" y="148"/>
      <point x="405" y="101"/>
    </contour>
    <contour>
      <point x="121" y="94" type="line"/>
      <point x="223" y="92" type="line"/>
      <point x="566" y="596" type="line"/>
      <point x="464" y="598" type="line"/>
    </contour>
  </outline>
</glyph>
<glyph name="three" format="1">
  <advance width="612"/>
  <unicode hex="0033"/>
  <outline>
    <contour>
      <point x="284" y="-10" type="curve" smooth="yes"/>
      <point x="433" y="-10"/>
      <point x="532" y="52"/>
      <point x="552" y="176" type="curve" smooth="yes"/>
      <point x="566" y="264"/>
      <point x="523" y="327"/>
      <point x="449" y="332" type="curve"/>
      <point x="455" y="365" type="line"/>
      <point x="541" y="370"/>
      <point x="587" y="407"/>
      <point x="601" y="490" type="curve" smooth="yes"/>
      <point x="625" y="639"/>
      <point x="493" y="700"/>
      <point x="349" y="700" type="curve" smooth="yes"/>
      <point x="193" y="700"/>
      <point x="108" y="627"/>
      <point x="67" y="448" type="curve"/>
      <point x="214" y="448" type="line"/>
      <point x="219" y="481" type="line" smooth="yes"/>
      <point x="231" y="548"/>
      <point x="269" y="586"/>
      <point x="347" y="586" type="curve" smooth="yes"/>
      <point x="416" y="586"/>
      <point x="461" y="552"/>
      <point x="453" y="505" type="curve" smooth="yes"/>
      <point x="447" y="471" type="line" smooth="yes"/>
      <point x="439" y="422"/>
      <point x="410" y="402"/>
      <point x="358" y="402" type="curve" smooth="yes"/>
      <point x="232" y="402" type="line"/>
      <point x="215" y="302" type="line"/>
      <point x="326" y="302" type="line" smooth="yes"/>
      <point x="387" y="302"/>
      <point x="417" y="270"/>
      <point x="408" y="217" type="curve" smooth="yes"/>
      <point x="402" y="178" type="line" smooth="yes"/>
      <point x="394" y="130"/>
      <point x="354" y="104"/>
      <point x="283" y="104" type="curve" smooth="yes"/>
      <point x="204" y="104"/>
      <point x="161" y="144"/>
      <point x="172" y="210" type="curve" smooth="yes"/>
      <point x="177" y="242" type="line"/>
      <point x="31" y="242" type="line"/>
      <point x="22" y="61"/>
      <point x="109" y="-10"/>
    </contour>
  </outline>
</glyph>
<glyph name="five" format="1">
  <advance width="629"/>
  <unicode hex="0035"/>
  <outline>
    <contour>
      <point x="300" y="-10" type="curve" smooth="yes"/>
      <point x="454" y="-10"/>
      <point x="551" y="64"/>
      <point x="575" y="214" type="curve" smooth="yes"/>
      <point x="601" y="374"/>
      <point x="516" y="458"/>
      <point x="391" y="458" type="curve" smooth="yes"/>
      <point x="319" y="458"/>
      <point x="263" y="425"/>
      <point x="242" y="365" type="curve"/>
      <point x="209" y="365" type="line"/>
      <point x="227" y="428"/>
      <point x="235" y="460"/>
      <point x="240" y="490" type="curve" smooth="yes"/>
      <point x="256" y="580" type="line"/>
      <point x="500" y="580" type="line"/>
      <point x="484" y="483" type="line"/>
      <point x="606" y="483" type="line"/>
      <point x="641" y="690" type="line"/>
      <point x="131" y="690" type="line"/>
      <point x="68" y="312" type="line"/>
      <point x="211" y="312" type="line"/>
      <point x="237" y="339"/>
      <point x="277" y="355"/>
      <point x="325" y="355" type="curve" smooth="yes"/>
      <point x="401" y="355"/>
      <point x="441" y="317"/>
      <point x="430" y="250" type="curve" smooth="yes"/>
      <point x="422" y="199" type="line" smooth="yes"/>
      <point x="411" y="136"/>
      <point x="375" y="104"/>
      <point x="300" y="104" type="curve" smooth="yes"/>
      <point x="221" y="104"/>
      <point x="178" y="144"/>
      <point x="189" y="209" type="curve" smooth="yes"/>
      <point x="194" y="242" type="line"/>
      <point x="48" y="242" type="line"/>
      <point x="39" y="60"/>
      <point x="127" y="-10"/>
    </contour>
  </outline>
</glyph>
<glyph name="less" format="1">
  <advance width="474"/>
  <unicode hex="003C"/>
  <outline>
    <contour>
      <point x="495" y="561" type="line"/>
      <point x="47" y="415" type="line"/>
      <point x="21" y="259" type="line"/>
      <point x="421" y="113" type="line"/>
      <point x="438" y="217" type="line"/>
      <point x="142" y="316" type="line"/>
      <point x="147" y="349" type="line"/>
      <point x="477" y="448" type="line"/>
    </contour>
  </outline>
</glyph>
<glyph name="A" format="1">
  <advance width="632"/>
  <unicode hex="0041"/>
  <outline>
    <contour>
      <point x="-25" y="0" type="line"/>
      <point x="126" y="0" type="line"/>
      <point x="355" y="569" type="line"/>
      <point x="388" y="569" type="line"/>
      <point x="427" y="0" type="line"/>
      <point x="573" y="0" type="line"/>
      <point x="522" y="690" type="line"/>
      <point x="258" y="690" type="line"/>
    </contour>
    <contour>
      <point x="128" y="153" type="line"/>
      <point x="461" y="153" type="line"/>
      <point x="476" y="255" type="line"/>
      <point x="146" y="255" type="line"/>
    </contour>
    <contour>
      <point x="151" y="583" type="line"/>
      <point x="338" y="583" type="line"/>
      <point x="356" y="690" type="line"/>
      <point x="169" y="690" type="line"/>
    </contour>
    <contour>
      <point x="573" y="0" type="move" name="ogonek"/>
    </contour>
    <contour>
      <point x="385" y="690" type="move" name="top"/>
    </contour>
  </outline>
</glyph>
<glyph name="C" format="1">
  <advance width="669"/>
  <unicode hex="0043"/>
  <outline>
    <contour>
      <point x="318" y="-10" type="curve" smooth="yes"/>
      <point x="479" y="-10"/>
      <point x="588" y="76"/>
      <point x="632" y="256" type="curve"/>
      <point x="480" y="256" type="line"/>
      <point x="475" y="223" type="line" smooth="yes"/>
      <point x="464" y="162"/>
      <point x="424" y="104"/>
      <point x="323" y="104" type="curve" smooth="yes"/>
      <point x="221" y="104"/>
      <point x="176" y="163"/>
      <point x="196" y="284" type="curve" smooth="yes"/>
      <point x="217" y="411" type="line" smooth="yes"/>
      <point x="237" y="532"/>
      <point x="283" y="586"/>
      <point x="384" y="586" type="curve" smooth="yes"/>
      <point x="486" y="586"/>
      <point x="524" y="528"/>
      <point x="514" y="472" type="curve" smooth="yes"/>
      <point x="509" y="442" type="line"/>
      <point x="659" y="442" type="line"/>
      <point x="659" y="614"/>
      <point x="557" y="700"/>
      <point x="391" y="700" type="curve" smooth="yes"/>
      <point x="212" y="700"/>
      <point x="93" y="592"/>
      <point x="55" y="362" type="curve" smooth="yes"/>
      <point x="14" y="117"/>
      <point x="113" y="-10"/>
    </contour>
    <contour>
      <point x="296" y="0" type="move" name="bottom"/>
    </contour>
    <contour>
      <point x="412" y="690" type="move" name="top"/>
    </contour>
  </outline>
</glyph>
<glyph name="D" format="1">
  <advance width="687"/>
  <unicode hex="0044"/>
  <outline>
    <contour>
      <point x="32" y="0" type="line"/>
      <point x="320" y="0" type="line" smooth="yes"/>
      <point x="517" y="0"/>
      <point x="617" y="88"/>
      <point x="657" y="328" type="curve" smooth="yes"/>
      <point x="697" y="568"/>
      <point x="608" y="690"/>
      <point x="411" y="690" type="curve" smooth="yes"/>
      <point x="85" y="690" type="line"/>
      <point x="67" y="583" type="line"/>
      <point x="130" y="583" type="line"/>
    </contour>
    <contour>
      <point x="325" y="107" type="curve" smooth="yes"/>
      <point x="196" y="107" type="line"/>
      <point x="277" y="583" type="line"/>
      <point x="386" y="583" type="line" smooth="yes"/>
      <point x="489" y="583"/>
      <point x="536" y="526"/>
      <point x="515" y="405" type="curve" smooth="yes"/>
      <point x="495" y="280" type="line" smooth="yes"/>
      <point x="475" y="159"/>
      <point x="428" y="107"/>
    </contour>
  </outline>
</glyph>
<glyph name="E" format="1">
  <advance width="606"/>
  <unicode hex="0045"/>
  <outline>
    <contour>
      <point x="472" y="483" type="line"/>
      <point x="594" y="483" type="line"/>
      <point x="629" y="690" type="line"/>
      <point x="86" y="690" type="line"/>
      <point x="68" y="583" type="line"/>
      <point x="131" y="583" type="line"/>
      <point x="32" y="0" type="line"/>
      <point x="517" y="0" type="line"/>
      <point x="553" y="211" type="line"/>
      <point x="431" y="211" type="line"/>
      <point x="413" y="107" type="line"/>
      <point x="197" y="107" type="line"/>
      <point x="230" y="302" type="line"/>
      <point x="461" y="302" type="line"/>
      <point x="477" y="402" type="line"/>
      <point x="247" y="402" type="line"/>
      <point x="277" y="583" type="line"/>
      <point x="489" y="583" type="line"/>
    </contour>
    <contour>
      <point x="517" y="0" type="move" name="ogonek"/>
    </contour>
    <contour>
      <point x="377" y="690" type="move" name="top"/>
    </contour>
  </outline>
</glyph>
<glyph name="F" format="1">
  <advance width="586"/>
  <unicode hex="0046"/>
  <outline>
    <contour>
      <point x="33" y="0" type="line"/>
      <point x="179" y="0" type="line"/>
      <point x="231" y="302" type="line"/>
      <point x="461" y="302" type="line"/>
      <point x="478" y="402" type="line"/>
      <point x="247" y="402" type="line"/>
      <point x="278" y="583" type="line"/>
      <point x="490" y="583" type="line"/>
      <point x="473" y="483" type="line"/>
      <point x="595" y="483" type="line"/>
      <point x="629" y="690" type="line"/>
      <point x="86" y="690" type="line"/>
      <point x="68" y="583" type="line"/>
      <point x="131" y="583" type="line"/>
    </contour>
  </outline>
</glyph>
<glyph name="G" format="1">
  <advance width="692"/>
  <unicode hex="0047"/>
  <outline>
    <contour>
      <point x="269" y="-10" type="curve" smooth="yes"/>
      <point x="366" y="-10"/>
      <point x="427" y="38"/>
      <point x="456" y="131" type="curve"/>
      <point x="489" y="131" type="line"/>
      <point x="467" y="0" type="line"/>
      <point x="591" y="0" type="line"/>
      <point x="650" y="355" type="line"/>
      <point x="361" y="355" type="line"/>
      <point x="345" y="256" type="line"/>
      <point x="511" y="256" type="line"/>
      <point x="502" y="316" type="line"/>
      <point x="491" y="256" type="line" smooth="yes"/>
      <point x="474" y="158"/>
      <point x="428" y="102"/>
      <point x="325" y="102" type="curve" smooth="yes"/>
      <point x="222" y="102"/>
      <point x="176" y="160"/>
      <point x="197" y="285" type="curve" smooth="yes"/>
      <point x="218" y="411" type="line" smooth="yes"/>
      <point x="239" y="534"/>
      <point x="283" y="586"/>
      <point x="385" y="586" type="curve" smooth="yes"/>
      <point x="487" y="586"/>
      <point x="520" y="526"/>
      <point x="514" y="489" type="curve" smooth="yes"/>
      <point x="510" y="466" type="line"/>
      <point x="658" y="466" type="line"/>
      <point x="649" y="623"/>
      <point x="547" y="700"/>
      <point x="389" y="700" type="curve" smooth="yes"/>
      <point x="211" y="700"/>
      <point x="93" y="592"/>
      <point x="55" y="362" type="curve" smooth="yes"/>
      <point x="17" y="126"/>
      <point x="116" y="-10"/>
    </contour>
  </outline>
</glyph>
<glyph name="H" format="1">
  <advance width="679"/>
  <unicode hex="0048"/>
  <outline>
    <contour>
      <point x="418" y="0" type="line"/>
      <point x="565" y="0" type="line"/>
      <point x="681" y="690" type="line"/>
      <point x="534" y="690" type="line"/>
    </contour>
    <contour>
      <point x="32" y="0" type="line"/>
      <point x="179" y="0" type="line"/>
      <point x="295" y="690" type="line"/>
      <point x="85" y="690" type="line"/>
      <point x="67" y="583" type="line"/>
      <point x="130" y="583" type="line"/>
    </contour>
    <contour>
      <point x="174" y="301" type="line"/>
      <point x="521" y="301" type="line"/>
      <point x="538" y="403" type="line"/>
      <point x="191" y="403" type="line"/>
    </contour>
  </outline>
</glyph>
<glyph name="J" format="1">
  <advance width="589"/>
  <unicode hex="004A"/>
  <outline>
    <contour>
      <point x="254" y="-10" type="curve" smooth="yes"/>
      <point x="407" y="-10"/>
      <point x="495" y="72"/>
      <point x="526" y="256" type="curve" smooth="yes"/>
      <point x="598" y="690" type="line"/>
      <point x="254" y="690" type="line"/>
      <point x="236" y="583" type="line"/>
      <point x="434" y="583" type="line"/>
      <point x="375" y="234" type="line" smooth="yes"/>
      <point x="360" y="142"/>
      <point x="329" y="104"/>
      <point x="255" y="104" type="curve" smooth="yes"/>
      <point x="181" y="104"/>
      <point x="148" y="147"/>
      <point x="164" y="242" type="curve" smooth="yes"/>
      <point x="173" y="296" type="line"/>
      <point x="26" y="296" type="line"/>
      <point x="24" y="281" type="line" smooth="yes"/>
      <point x="-11" y="75"/>
      <point x="83" y="-10"/>
    </contour>
    <contour>
      <point x="437" y="690" type="move" name="top"/>
    </contour>
  </outline>
</glyph>
<glyph name="N" format="1">
  <advance width="685"/>
  <unicode hex="004E"/>
  <outline>
    <contour>
      <point x="32" y="0" type="line"/>
      <point x="175" y="0" type="line"/>
      <point x="233" y="347" type="line" smooth="yes"/>
      <point x="238" y="378"/>
      <point x="240" y="410"/>
      <point x="244" y="473" type="curve"/>
      <point x="277" y="473" type="line"/>
      <point x="444" y="0" type="line"/>
      <point x="571" y="0" type="line"/>
      <point x="687" y="690" type="line"/>
      <point x="545" y="690" type="line"/>
      <point x="502" y="437" type="line" smooth="yes"/>
      <point x="497" y="406"/>
      <point x="495" y="374"/>
      <point x="491" y="311" type="curve"/>
      <point x="458" y="311" type="line"/>
      <point x="314" y="690" type="line"/>
      <point x="85" y="690" type="line"/>
      <point x="67" y="583" type="line"/>
      <point x="130" y="583" type="line"/>
    </contour>
    <contour>
      <point x="418" y="690" type="move" name="top"/>
    </contour>
  </outline>
</glyph>
<glyph name="O" format="1">
  <advance width="691"/>
  <unicode hex="004F"/>
  <outline>
    <contour>
      <point x="326" y="-10" type="curve" smooth="yes"/>
      <point x="506" y="-10"/>
      <point x="625" y="98"/>
      <point x="663" y="327" type="curve" smooth="yes"/>
      <point x="705" y="579"/>
      <point x="596" y="700"/>
      <point x="392" y="700" type="curve" smooth="yes"/>
      <point x="211" y="700"/>
      <point x="92" y="592"/>
      <point x="54" y="363" type="curve" smooth="yes"/>
      <point x="12" y="111"/>
      <point x="121" y="-10"/>
    </contour>
    <contour>
      <point x="328" y="104" type="curve" smooth="yes"/>
      <point x="223" y="104"/>
      <point x="176" y="163"/>
      <point x="196" y="285" type="curve" smooth="yes"/>
      <point x="217" y="411" type="line" smooth="yes"/>
      <point x="237" y="532"/>
      <point x="284" y="586"/>
      <point x="389" y="586" type="curve" smooth="yes"/>
      <point x="495" y="586"/>
      <point x="542" y="527"/>
      <point x="522" y="405" type="curve" smooth="yes"/>
      <point x="501" y="279" type="line" smooth="yes"/>
      <point x="480" y="158"/>
      <point x="433" y="104"/>
    </contour>
    <contour>
      <point x="418" y="690" type="move" name="top"/>
    </contour>
  </outline>
</glyph>
<glyph name="R" format="1">
  <advance width="655"/>
  <unicode hex="0052"/>
  <outline>
    <contour>
      <point x="32" y="0" type="line"/>
      <point x="179" y="0" type="line"/>
      <point x="228" y="295" type="line"/>
      <point x="355" y="295" type="line" smooth="yes"/>
      <point x="405" y="295"/>
      <point x="429" y="268"/>
      <point x="420" y="213" type="curve" smooth="yes"/>
      <point x="384" y="0" type="line"/>
      <point x="589" y="0" type="line"/>
      <point x="607" y="107" type="line"/>
      <point x="545" y="107" type="line"/>
      <point x="558" y="187" type="line" smooth="yes"/>
      <point x="573" y="272"/>
      <point x="539" y="320"/>
      <point x="466" y="324" type="curve"/>
      <point x="472" y="356" type="line"/>
      <point x="569" y="361"/>
      <point x="616" y="397"/>
      <point x="630" y="487" type="curve" smooth="yes"/>
      <point x="651" y="608"/>
      <point x="577" y="690"/>
      <point x="442" y="690" type="curve" smooth="yes"/>
      <point x="85" y="690" type="line"/>
      <point x="67" y="583" type="line"/>
      <point x="130" y="583" type="line"/>
    </contour>
    <contour>
      <point x="396" y="395" type="curve" smooth="yes"/>
      <point x="245" y="395" type="line"/>
      <point x="277" y="583" type="line"/>
      <point x="417" y="583" type="line" smooth="yes"/>
      <point x="467" y="583"/>
      <point x="490" y="556"/>
      <point x="482" y="504" type="curve" smooth="yes"/>
      <point x="475" y="466" type="line" smooth="yes"/>
      <point x="467" y="417"/>
      <point x="446" y="395"/>
    </contour>
  </outline>
</glyph>
<glyph name="S" format="1">
  <advance width="621"/>
  <unicode hex="0053"/>
  <outline>
    <contour>
      <point x="303" y="-10" type="curve" smooth="yes"/>
      <point x="455" y="-10"/>
      <point x="548" y="49"/>
      <point x="568" y="173" type="curve" smooth="yes"/>
      <point x="587" y="283"/>
      <point x="541" y="351"/>
      <point x="416" y="389" type="curve" smooth="yes"/>
      <point x="302" y="420" type="line" smooth="yes"/>
      <point x="239" y="438"/>
      <point x="221" y="463"/>
      <point x="227" y="503" type="curve" smooth="yes"/>
      <point x="230" y="519" type="line" smooth="yes"/>
      <point x="237" y="563"/>
      <point x="272" y="586"/>
      <point x="350" y="586" type="curve" smooth="yes"/>
      <point x="439" y="586"/>
      <point x="483" y="544"/>
      <point x="472" y="476" type="curve" smooth="yes"/>
      <point x="467" y="448" type="line"/>
      <point x="612" y="448" type="line"/>
      <point x="620" y="633"/>
      <point x="527" y="700"/>
      <point x="346" y="700" type="curve" smooth="yes"/>
      <point x="195" y="700"/>
      <point x="102" y="640"/>
      <point x="82" y="517" type="curve" smooth="yes"/>
      <point x="64" y="407"/>
      <point x="107" y="338"/>
      <point x="232" y="300" type="curve" smooth="yes"/>
      <point x="346" y="270" type="line" smooth="yes"/>
      <point x="410" y="251"/>
      <point x="429" y="227"/>
      <point x="423" y="187" type="curve" smooth="yes"/>
      <point x="420" y="171" type="line" smooth="yes"/>
      <point x="412" y="128"/>
      <point x="376" y="104"/>
      <point x="297" y="104" type="curve" smooth="yes"/>
      <point x="206" y="104"/>
      <point x="162" y="145"/>
      <point x="173" y="214" type="curve" smooth="yes"/>
      <point x="178" y="242" type="line"/>
      <point x="32" y="242" type="line"/>
      <point x="24" y="60"/>
      <point x="117" y="-10"/>
    </contour>
    <contour>
      <point x="376" y="690" type="move" name="top"/>
    </contour>
  </outline>
</glyph>
<glyph name="U" format="1">
  <advance width="692"/>
  <unicode hex="0055"/>
  <outline>
    <contour>
      <point x="240" y="-10" type="curve" smooth="yes"/>
      <point x="342" y="-10"/>
      <point x="398" y="34"/>
      <point x="432" y="124" type="curve"/>
      <point x="464" y="124" type="line"/>
      <point x="459" y="92" type="line" smooth="yes"/>
      <point x="449" y="33"/>
      <point x="476" y="0"/>
      <point x="538" y="0" type="curve" smooth="yes"/>
      <point x="633" y="0" type="line"/>
      <point x="651" y="107" type="line"/>
      <point x="589" y="107" type="line"/>
      <point x="687" y="690" type="line"/>
      <point x="540" y="690" type="line"/>
      <point x="466" y="251" type="line" smooth="yes"/>
      <point x="449" y="152"/>
      <point x="411" y="104"/>
      <point x="325" y="104" type="curve" smooth="yes"/>
      <point x="239" y="104"/>
      <point x="198" y="152"/>
      <point x="216" y="255" type="curve" smooth="yes"/>
      <point x="289" y="690" type="line"/>
      <point x="80" y="690" type="line"/>
      <point x="62" y="583" type="line"/>
      <point x="124" y="583" type="line"/>
      <point x="65" y="228" type="line" smooth="yes"/>
      <point x="39" y="77"/>
      <point x="107" y="-10"/>
    </contour>
    <contour>
      <point x="414" y="690" type="move" name="top"/>
    </contour>
  </outline>
</glyph>
<glyph name="W" format="1">
  <advance width="951"/>
  <unicode hex="0057"/>
  <outline>
    <contour>
      <point x="101" y="0" type="line"/>
      <point x="340" y="0" type="line"/>
      <point x="488" y="443" type="line"/>
      <point x="521" y="443" type="line"/>
      <point x="521" y="0" type="line"/>
      <point x="759" y="0" type="line"/>
      <point x="1006" y="690" type="line"/>
      <point x="858" y="690" type="line"/>
      <point x="662" y="119" type="line"/>
      <point x="629" y="119" type="line"/>
      <point x="623" y="690" type="line"/>
      <point x="466" y="690" type="line"/>
      <point x="267" y="119" type="line"/>
      <point x="235" y="119" type="line"/>
      <point x="231" y="690" type="line"/>
      <point x="86" y="690" type="line"/>
    </contour>
  </outline>
</glyph>
<glyph name="Z" format="1">
  <advance width="569"/>
  <unicode hex="005A"/>
  <outline>
    <contour>
      <point x="-15" y="0" type="line"/>
      <point x="495" y="0" type="line"/>
      <point x="512" y="107" type="line"/>
      <point x="183" y="107" type="line"/>
      <point x="590" y="583" type="line"/>
      <point x="608" y="690" type="line"/>
      <point x="104" y="690" type="line"/>
      <point x="86" y="583" type="line"/>
      <point x="410" y="583" type="line"/>
      <point x="3" y="107" type="line"/>
    </contour>
    <contour>
      <point x="356" y="690" type="move" name="top"/>
    </contour>
  </outline>
</glyph>
<glyph name="bracketleft" format="1">
  <advance width="330"/>
  <unicode hex="005B"/>
  <outline>
    <contour>
      <point x="9" y="-92" type="line"/>
      <point x="241" y="-92" type="line"/>
      <point x="258" y="7" type="line"/>
      <point x="157" y="7" type="line"/>
      <point x="269" y="683" type="line"/>
      <point x="370" y="683" type="line"/>
      <point x="387" y="782" type="line"/>
      <point x="155" y="782" type="line"/>
    </contour>
  </outline>
</glyph>
<glyph name="asciicircum" format="1">
  <advance width="474"/>
  <unicode hex="005E"/>
  <outline>
    <contour>
      <point x="66" y="419" type="line"/>
      <point x="179" y="419" type="line"/>
      <point x="280" y="590" type="line"/>
      <point x="313" y="590" type="line"/>
      <point x="355" y="419" type="line"/>
      <point x="459" y="419" type="line"/>
      <point x="386" y="690" type="line"/>
      <point x="238" y="690" type="line"/>
    </contour>
  </outline>
</glyph>
<glyph name="b" format="1">
  <advance width="596"/>
  <unicode hex="0062"/>
  <outline>
    <contour>
      <point x="327" y="-10" type="curve" smooth="yes"/>
      <point x="446" y="-10"/>
      <point x="530" y="79"/>
      <point x="559" y="252" type="curve" smooth="yes"/>
      <point x="588" y="425"/>
      <point x="526" y="544"/>
      <point x="397" y="544" type="curve" smooth="yes"/>
      <point x="326" y="544"/>
      <point x="280" y="508"/>
      <point x="254" y="435" type="curve"/>
      <point x="222" y="435" type="line"/>
      <point x="239" y="498"/>
      <point x="248" y="530"/>
      <point x="253" y="561" type="curve" smooth="yes"/>
      <point x="275" y="690" type="line"/>
      <point x="76" y="690" type="line"/>
      <point x="59" y="587" type="line"/>
      <point x="114" y="587" type="line"/>
      <point x="16" y="0" type="line"/>
      <point x="140" y="0" type="line"/>
      <point x="158" y="108" type="line"/>
      <point x="191" y="108" type="line"/>
      <point x="199" y="31"/>
      <point x="251" y="-10"/>
    </contour>
    <contour>
      <point x="286" y="100" type="curve" smooth="yes"/>
      <point x="215" y="100"/>
      <point x="183" y="143"/>
      <point x="197" y="229" type="curve" smooth="yes"/>
      <point x="211" y="311" type="line" smooth="yes"/>
      <point x="226" y="396"/>
      <point x="257" y="434"/>
      <point x="329" y="434" type="curve" smooth="yes"/>
      <point x="400" y="434"/>
      <point x="432" y="391"/>
      <point x="417" y="305" type="curve" smooth="yes"/>
      <point x="403" y="223" type="line" smooth="yes"/>
      <point x="389" y="138"/>
      <point x="357" y="100"/>
    </contour>
  </outline>
</glyph>
<glyph name="h" format="1">
  <advance width="589"/>
  <unicode hex="0068"/>
  <outline>
    <contour>
      <point x="16" y="0" type="line"/>
      <point x="159" y="0" type="line"/>
      <point x="215" y="331" type="line" smooth="yes"/>
      <point x="226" y="400"/>
      <point x="256" y="434"/>
      <point x="315" y="434" type="curve" smooth="yes"/>
      <point x="374" y="434"/>
      <point x="399" y="400"/>
      <point x="386" y="327" type="curve" smooth="yes"/>
      <point x="331" y="0" type="line"/>
      <point x="530" y="0" type="line"/>
      <point x="547" y="103" type="line"/>
      <point x="492" y="103" type="line"/>
      <point x="533" y="351" type="line" smooth="yes"/>
      <point x="554" y="473"/>
      <point x="498" y="544"/>
      <point x="393" y="544" type="curve" smooth="yes"/>
      <point x="320" y="544"/>
      <point x="280" y="510"/>
      <point x="255" y="437" type="curve"/>
      <point x="222" y="437" type="line"/>
      <point x="240" y="500"/>
      <point x="248" y="532"/>
      <point x="253" y="563" type="curve" smooth="yes"/>
      <point x="275" y="690" type="line"/>
      <point x="77" y="690" type="line"/>
      <point x="59" y="587" type="line"/>
      <point x="115" y="587" type="line"/>
    </contour>
  </outline>
</glyph>
<glyph name="o" format="1">
  <advance width="583"/>
  <unicode hex="006F"/>
  <outline>
    <contour>
      <point x="269" y="-10" type="curve" smooth="yes"/>
      <point x="417" y="-10"/>
      <point x="518" y="79"/>
      <point x="547" y="252" type="curve" smooth="yes"/>
      <point x="580" y="447"/>
      <point x="480" y="544"/>
      <point x="314" y="544" type="curve" smooth="yes"/>
      <point x="166" y="544"/>
      <point x="65" y="455"/>
      <point x="36" y="282" type="curve" smooth="yes"/>
      <point x="4" y="87"/>
      <point x="104" y="-10"/>
    </contour>
    <contour>
      <point x="270" y="100" type="curve" smooth="yes"/>
      <point x="197" y="100"/>
      <point x="164" y="143"/>
      <point x="178" y="229" type="curve" smooth="yes"/>
      <point x="192" y="311" type="line" smooth="yes"/>
      <point x="207" y="396"/>
      <point x="240" y="434"/>
      <point x="313" y="434" type="curve" smooth="yes"/>
      <point x="386" y="434"/>
      <point x="419" y="391"/>
      <point x="405" y="305" type="curve" smooth="yes"/>
      <point x="391" y="223" type="line" smooth="yes"/>
      <point x="377" y="138"/>
      <point x="343" y="100"/>
    </contour>
    <contour>
      <point x="337" y="534" type="move" name="top"/>
    </contour>
  </outline>
</glyph>
<glyph name="t" format="1">
  <advance width="365"/>
  <unicode hex="0074"/>
  <outline>
    <contour>
      <point x="140" y="0" type="curve" smooth="yes"/>
      <point x="289" y="0" type="line"/>
      <point x="306" y="103" type="line"/>
      <point x="206" y="103" type="line"/>
      <point x="296" y="641" type="line"/>
      <point x="201" y="641" type="line"/>
      <point x="135" y="534" type="line"/>
      <point x="61" y="94" type="line" smooth="yes"/>
      <point x="52" y="33"/>
      <point x="79" y="0"/>
    </contour>
    <contour>
      <point x="41" y="431" type="line"/>
      <point x="361" y="431" type="line"/>
      <point x="379" y="534" type="line"/>
      <point x="59" y="534" type="line"/>
    </contour>
  </outline>
</glyph>
<glyph name="u" format="1">
  <advance width="604"/>
  <unicode hex="0075"/>
  <outline>
    <contour>
      <point x="195" y="-10" type="curve" smooth="yes"/>
      <point x="272" y="-10"/>
      <point x="316" y="28"/>
      <point x="344" y="107" type="curve"/>
      <point x="377" y="107" type="line"/>
      <point x="374" y="92" type="line" smooth="yes"/>
      <point x="365" y="33"/>
      <point x="392" y="0"/>
      <point x="453" y="0" type="curve" smooth="yes"/>
      <point x="538" y="0" type="line"/>
      <point x="555" y="103" type="line"/>
      <point x="500" y="103" type="line"/>
      <point x="572" y="534" type="line"/>
      <point x="430" y="534" type="line"/>
      <point x="374" y="203" type="line" smooth="yes"/>
      <point x="362" y="134"/>
      <point x="333" y="100"/>
      <point x="274" y="100" type="curve" smooth="yes"/>
      <point x="215" y="100"/>
      <point x="190" y="134"/>
      <point x="202" y="207" type="curve" smooth="yes"/>
      <point x="257" y="534" type="line"/>
      <point x="59" y="534" type="line"/>
      <point x="42" y="431" type="line"/>
      <point x="97" y="431" type="line"/>
      <point x="55" y="183" type="line" smooth="yes"/>
      <point x="35" y="61"/>
      <point x="91" y="-10"/>
    </contour>
    <contour>
      <point x="343" y="534" type="move" name="top"/>
    </contour>
  </outline>
</glyph>
<glyph name="y" format="1">
  <advance width="537"/>
  <unicode hex="0079"/>
  <outline>
    <contour>
      <point x="14" y="-132" type="line"/>
      <point x="218" y="-132" type="line" smooth="yes"/>
      <point x="276" y="-132"/>
      <point x="308" y="-102"/>
      <point x="332" y="-44" type="curve" smooth="yes"/>
      <point x="571" y="534" type="line"/>
      <point x="424" y="534" type="line"/>
      <point x="262" y="131" type="line"/>
      <point x="230" y="131" type="line"/>
      <point x="203" y="534" type="line"/>
      <point x="60" y="534" type="line"/>
      <point x="99" y="29" type="line"/>
      <point x="218" y="29" type="line"/>
      <point x="193" y="-29" type="line"/>
      <point x="32" y="-29" type="line"/>
    </contour>
    <contour>
      <point x="314" y="534" type="move" name="top"/>
    </contour>
  </outline>
</glyph>
<glyph name="z" format="1">
  <advance width="492"/>
  <unicode hex="007A"/>
  <outline>
    <contour>
      <point x="-15" y="0" type="line"/>
      <point x="417" y="0" type="line"/>
      <point x="434" y="103" type="line"/>
      <point x="181" y="103" type="line"/>
      <point x="486" y="431" type="line"/>
      <point x="504" y="534" type="line"/>
      <point x="78" y="534" type="line"/>
      <point x="61" y="431" type="line"/>
      <point x="308" y="431" type="line"/>
      <point x="3" y="103" type="line"/>
    </contour>
    <contour>
      <point x="291" y="534" type="move" name="top"/>
    </contour>
  </outline>
</glyph>
<glyph name="bar" format="1">
  <advance width="266"/>
  <unicode hex="007C"/>
  <outline>
    <contour>
      <point x="8" y="-92" type="line"/>
      <point x="138" y="-92" type="line"/>
      <point x="284" y="782" type="line"/>
      <point x="154" y="782" type="line"/>
    </contour>
  </outline>
</glyph>
<glyph name="asciitilde" format="1">
  <advance width="474"/>
  <unicode hex="007E"/>
  <outline>
    <contour>
      <point x="24" y="262" type="curve"/>
      <point x="127" y="262" type="line"/>
      <point x="133" y="292"/>
      <point x="148" y="308"/>
      <point x="172" y="308" type="curve" smooth="yes"/>
      <point x="217" y="308"/>
      <point x="265" y="262"/>
      <point x="343" y="262" type="curve" smooth="yes"/>
      <point x="420" y="262"/>
      <point x="460" y="309"/>
      <point x="474" y="412" type="curve"/>
      <point x="370" y="412" type="line"/>
      <point x="365" y="382"/>
      <point x="350" y="366"/>
      <point x="326" y="366" type="curve" smooth="yes"/>
      <point x="281" y="366"/>
      <point x="232" y="412"/>
      <point x="154" y="412" type="curve" smooth="yes"/>
      <point x="77" y="412"/>
      <point x="38" y="365"/>
    </contour>
  </outline>
</glyph>
<glyph name="exclamdown" format="1">
  <advance width="261"/>
  <unicode hex="00A1"/>
  <outline>
    <contour>
      <point x="185" y="343" type="line"/>
      <point x="102" y="343" type="line"/>
      <point x="0" y="-49" type="line"/>
      <point x="-17" y="-156" type="line"/>
      <point x="137" y="-156" type="line"/>
      <point x="155" y="-49" type="line"/>
    </contour>
    <contour>
      <point x="252" y="534" type="line"/>
      <point x="99" y="534" type="line"/>
      <point x="75" y="387" type="line"/>
      <point x="227" y="387" type="line"/>
    </contour>
  </outline>
</glyph>
<glyph name="cent" format="1">
  <advance width="576"/>
  <unicode hex="00A2"/>
  <outline>
    <contour>
      <point x="270" y="-4" type="curve" smooth="yes"/>
      <point x="400" y="-4"/>
      <point x="489" y="59"/>
      <point x="524" y="194" type="curve"/>
      <point x="377" y="194" type="line"/>
      <point x="375" y="178" type="line" smooth="yes"/>
      <point x="369" y="141"/>
      <point x="343" y="104"/>
      <point x="273" y="104" type="curve" smooth="yes"/>
      <point x="203" y="104"/>
      <point x="171" y="144"/>
      <point x="185" y="229" type="curve" smooth="yes"/>
      <point x="199" y="311" type="line" smooth="yes"/>
      <point x="213" y="396"/>
      <point x="244" y="430"/>
      <point x="314" y="430" type="curve" smooth="yes"/>
      <point x="384" y="430"/>
      <point x="408" y="387"/>
      <point x="404" y="362" type="curve" smooth="yes"/>
      <point x="402" y="348" type="line"/>
      <point x="545" y="348" type="line"/>
      <point x="540" y="475"/>
      <point x="452" y="538"/>
      <point x="319" y="538" type="curve" smooth="yes"/>
      <point x="171" y="538"/>
      <point x="72" y="455"/>
      <point x="43" y="281" type="curve" smooth="yes"/>
      <point x="12" y="93"/>
      <point x="103" y="-4"/>
    </contour>
    <contour>
      <point x="181" y="-92" type="line"/>
      <point x="286" y="-92" type="line"/>
      <point x="305" y="24" type="line"/>
      <point x="200" y="24" type="line"/>
    </contour>
    <contour>
      <point x="282" y="510" type="line"/>
      <point x="387" y="510" type="line"/>
      <point x="406" y="626" type="line"/>
      <point x="301" y="626" type="line"/>
    </contour>
  </outline>
</glyph>
<glyph name="currency" format="1">
  <advance width="580"/>
  <unicode hex="00A4"/>
  <outline>
    <contour>
      <point x="288" y="129" type="curve" smooth="yes"/>
      <point x="425" y="129"/>
      <point x="512" y="204"/>
      <point x="534" y="333" type="curve" smooth="yes"/>
      <point x="559" y="487"/>
      <point x="460" y="563"/>
      <point x="319" y="563" type="curve" smooth="yes"/>
      <point x="182" y="563"/>
      <point x="94" y="488"/>
      <point x="73" y="360" type="curve" smooth="yes"/>
      <point x="47" y="208"/>
      <point x="145" y="129"/>
    </contour>
    <contour>
      <point x="100" y="54" type="line"/>
      <point x="202" y="173" type="line"/>
      <point x="132" y="239" type="line"/>
      <point x="23" y="113" type="line"/>
    </contour>
    <contour>
      <point x="416" y="54" type="line"/>
      <point x="504" y="109" type="line"/>
      <point x="436" y="237" type="line"/>
      <point x="351" y="175" type="line"/>
    </contour>
    <contour>
      <point x="291" y="240" type="curve" smooth="yes"/>
      <point x="229" y="240"/>
      <point x="203" y="272"/>
      <point x="212" y="327" type="curve" smooth="yes"/>
      <point x="220" y="372" type="line" smooth="yes"/>
      <point x="229" y="426"/>
      <point x="255" y="453"/>
      <point x="316" y="453" type="curve" smooth="yes"/>
      <point x="378" y="453"/>
      <point x="404" y="421"/>
      <point x="395" y="366" type="curve" smooth="yes"/>
      <point x="387" y="321" type="line" smooth="yes"/>
      <point x="378" y="266"/>
      <point x="353" y="240"/>
    </contour>
    <contour>
      <point x="172" y="455" type="line"/>
      <point x="256" y="517" type="line"/>
      <point x="192" y="638" type="line"/>
      <point x="103" y="583" type="line"/>
    </contour>
    <contour>
      <point x="475" y="453" type="line"/>
      <point x="584" y="579" type="line"/>
      <point x="508" y="638" type="line"/>
      <point x="406" y="519" type="line"/>
    </contour>
  </outline>
</glyph>
<glyph name="section" format="1">
  <advance width="579"/>
  <unicode hex="00A7"/>
  <outline>
    <contour>
      <point x="239" y="-102" type="curve" smooth="yes"/>
      <point x="399" y="-102"/>
      <point x="475" y="-54"/>
      <point x="493" y="57" type="curve" smooth="yes"/>
      <point x="502" y="108"/>
      <point x="485" y="166"/>
      <point x="429" y="186" type="curve"/>
      <point x="435" y="218" type="line"/>
      <point x="502" y="220"/>
      <point x="542" y="254"/>
      <point x="550" y="303" type="curve" smooth="yes"/>
      <point x="560" y="360"/>
      <point x="521" y="409"/>
      <point x="419" y="436" type="curve" smooth="yes"/>
      <point x="284" y="468" type="line" smooth="yes"/>
      <point x="243" y="481"/>
      <point x="228" y="500"/>
      <point x="234" y="536" type="curve" smooth="yes"/>
      <point x="241" y="580"/>
      <point x="272" y="593"/>
      <point x="337" y="593" type="curve" smooth="yes"/>
      <point x="407" y="593"/>
      <point x="438" y="563"/>
      <point x="436" y="531" type="curve" smooth="yes"/>
      <point x="434" y="518" type="line"/>
      <point x="574" y="518" type="line"/>
      <point x="574" y="636"/>
      <point x="500" y="700"/>
      <point x="345" y="700" type="curve" smooth="yes"/>
      <point x="187" y="700"/>
      <point x="109" y="647"/>
      <point x="92" y="542" type="curve" smooth="yes"/>
      <point x="81" y="478"/>
      <point x="106" y="432"/>
      <point x="162" y="412" type="curve"/>
      <point x="157" y="380" type="line"/>
      <point x="89" y="378"/>
      <point x="49" y="341"/>
      <point x="41" y="291" type="curve" smooth="yes"/>
      <point x="31" y="230"/>
      <point x="70" y="190"/>
      <point x="170" y="162" type="curve" smooth="yes"/>
      <point x="300" y="130" type="line" smooth="yes"/>
      <point x="342" y="118"/>
      <point x="355" y="94"/>
      <point x="349" y="60" type="curve" smooth="yes"/>
      <point x="342" y="18"/>
      <point x="313" y="5"/>
      <point x="253" y="5" type="curve" smooth="yes"/>
      <point x="176" y="5"/>
      <point x="147" y="32"/>
      <point x="150" y="67" type="curve" smooth="yes"/>
      <point x="152" y="80" type="line"/>
      <point x="12" y="80" type="line"/>
      <point x="11" y="-41"/>
      <point x="86" y="-102"/>
    </contour>
    <contour>
      <point x="373" y="228" type="curve"/>
      <point x="237" y="259" type="line" smooth="yes"/>
      <point x="198" y="272"/>
      <point x="180" y="291"/>
      <point x="185" y="324" type="curve" smooth="yes"/>
      <point x="189" y="345"/>
      <point x="201" y="360"/>
      <point x="218" y="370" type="curve"/>
      <point x="354" y="339" type="line" smooth="yes"/>
      <point x="393" y="326"/>
      <point x="412" y="307"/>
      <point x="406" y="274" type="curve" smooth="yes"/>
      <point x="403" y="253"/>
      <point x="391" y="238"/>
    </contour>
  </outline>
</glyph>
<glyph name="ordfeminine" format="1">
  <advance width="438"/>
  <unicode hex="00AA"/>
  <note>
ordfeminine
</note>
  <outline>
    <contour>
      <point x="167" y="353" type="curve" smooth="yes"/>
      <point x="220" y="353"/>
      <point x="248" y="376"/>
      <point x="265" y="427" type="curve"/>
      <point x="290" y="427" type="line"/>
      <point x="289" y="420" type="line" smooth="yes"/>
      <point x="283" y="384"/>
      <point x="303" y="359"/>
      <point x="349" y="359" type="curve" smooth="yes"/>
      <point x="410" y="359" type="line"/>
      <point x="424" y="438" type="line"/>
      <point x="391" y="438" type="line"/>
      <point x="413" y="566" type="line" smooth="yes"/>
      <point x="426" y="649"/>
      <point x="375" y="696"/>
      <point x="274" y="696" type="curve" smooth="yes"/>
      <point x="182" y="696"/>
      <point x="124" y="663"/>
      <point x="101" y="581" type="curve"/>
      <point x="213" y="581" type="line"/>
      <point x="214" y="585" type="line" smooth="yes"/>
      <point x="217" y="605"/>
      <point x="233" y="616"/>
      <point x="260" y="616" type="curve" smooth="yes"/>
      <point x="291" y="616"/>
      <point x="304" y="600"/>
      <point x="298" y="565" type="curve" smooth="yes"/>
      <point x="292" y="530" type="line"/>
      <point x="291" y="521" type="line"/>
      <point x="282" y="471" type="line" smooth="yes"/>
      <point x="278" y="445"/>
      <point x="262" y="434"/>
      <point x="230" y="434" type="curve" smooth="yes"/>
      <point x="203" y="434"/>
      <point x="188" y="446"/>
      <point x="191" y="463" type="curve" smooth="yes"/>
      <point x="192" y="471" type="line" smooth="yes"/>
      <point x="195" y="486"/>
      <point x="206" y="495"/>
      <point x="231" y="497" type="curve" smooth="yes"/>
      <point x="288" y="499" type="line"/>
      <point x="297" y="554" type="line"/>
      <point x="212" y="551" type="line" smooth="yes"/>
      <point x="125" y="547"/>
      <point x="83" y="519"/>
      <point x="73" y="458" type="curve" smooth="yes"/>
      <point x="64" y="398"/>
      <point x="102" y="353"/>
    </contour>
    <contour>
      <point x="281" y="690" type="move" name="top"/>
    </contour>
  </outline>
</glyph>
<glyph name="macron" format="1">
  <advance width="400"/>
  <unicode hex="00AF"/>
  <outline>
    <contour>
      <point x="98" y="579" type="line"/>
      <point x="407" y="579" type="line"/>
      <point x="422" y="671" type="line"/>
      <point x="113" y="671" type="line"/>
    </contour>
    <contour>
      <point x="245" y="534" type="move" name="_top"/>
    </contour>
  </outline>
</glyph>
<glyph name="plusminus" format="1">
  <advance width="474"/>
  <unicode hex="00B1"/>
  <outline>
    <contour>
      <point x="35" y="327" type="line"/>
      <point x="460" y="327" type="line"/>
      <point x="477" y="430" type="line"/>
      <point x="52" y="430" type="line"/>
    </contour>
    <contour>
      <point x="167" y="175" type="line"/>
      <point x="276" y="175" type="line"/>
      <point x="344" y="582" type="line"/>
      <point x="235" y="582" type="line"/>
    </contour>
    <contour>
      <point x="-18" y="13" type="line"/>
      <point x="407" y="13" type="line"/>
      <point x="424" y="116" type="line"/>
      <point x="-1" y="116" type="line"/>
    </contour>
  </outline>
</glyph>
<glyph name="micro" format="1">
  <advance width="592"/>
  <unicode hex="00B5"/>
  <outline>
    <contour>
      <point x="0" y="-132" type="line"/>
      <point x="143" y="-132" type="line"/>
      <point x="161" y="-24" type="line" smooth="yes"/>
      <point x="166" y="4"/>
      <point x="169" y="36"/>
      <point x="172" y="99" type="curve"/>
      <point x="134" y="88" type="line"/>
      <point x="136" y="27"/>
      <point x="163" y="-6"/>
      <point x="212" y="-6" type="curve" smooth="yes"/>
      <point x="270" y="-6"/>
      <point x="313" y="28"/>
      <point x="342" y="107" type="curve"/>
      <point x="375" y="107" type="line"/>
      <point x="356" y="0" type="line"/>
      <point x="480" y="0" type="line"/>
      <point x="570" y="534" type="line"/>
      <point x="427" y="534" type="line"/>
      <point x="371" y="203" type="line" smooth="yes"/>
      <point x="360" y="134"/>
      <point x="331" y="100"/>
      <point x="272" y="100" type="curve" smooth="yes"/>
      <point x="213" y="100"/>
      <point x="188" y="134"/>
      <point x="200" y="207" type="curve" smooth="yes"/>
      <point x="255" y="534" type="line"/>
      <point x="112" y="534" type="line"/>
    </contour>
  </outline>
</glyph>
<glyph name="paragraph" format="1">
  <advance width="531"/>
  <unicode hex="00B6"/>
  <outline>
    <contour>
      <point x="290" y="0" type="line"/>
      <point x="412" y="0" type="line"/>
      <point x="528" y="690" type="line"/>
      <point x="290" y="690" type="line" smooth="yes"/>
      <point x="159" y="690"/>
      <point x="85" y="633"/>
      <point x="64" y="505" type="curve" smooth="yes"/>
      <point x="45" y="392"/>
      <point x="107" y="316"/>
      <point x="228" y="316" type="curve" smooth="yes"/>
      <point x="264" y="316" type="line"/>
      <point x="309" y="589" type="line"/>
      <point x="388" y="589" type="line"/>
    </contour>
  </outline>
</glyph>
<glyph name="ordmasculine" format="1">
  <advance width="432"/>
  <unicode hex="00BA"/>
  <note>
ordmasculine
</note>
  <outline>
    <contour>
      <point x="247" y="353" type="curve" smooth="yes"/>
      <point x="347" y="353"/>
      <point x="416" y="407"/>
      <point x="434" y="514" type="curve" smooth="yes"/>
      <point x="455" y="636"/>
      <point x="385" y="696"/>
      <point x="271" y="696" type="curve" smooth="yes"/>
      <point x="171" y="696"/>
      <point x="102" y="642"/>
      <point x="84" y="535" type="curve" smooth="yes"/>
      <point x="63" y="409"/>
      <point x="138" y="353"/>
    </contour>
    <contour>
      <point x="247" y="438" type="curve" smooth="yes"/>
      <point x="208" y="438"/>
      <point x="191" y="460"/>
      <point x="198" y="505" type="curve" smooth="yes"/>
      <point x="206" y="551" type="line" smooth="yes"/>
      <point x="213" y="594"/>
      <point x="231" y="612"/>
      <point x="271" y="612" type="curve" smooth="yes"/>
      <point x="310" y="612"/>
      <point x="326" y="589"/>
      <point x="319" y="544" type="curve" smooth="yes"/>
      <point x="312" y="498" type="line" smooth="yes"/>
      <point x="305" y="455"/>
      <point x="286" y="438"/>
    </contour>
    <contour>
      <point x="287" y="690" type="move" name="top"/>
    </contour>
  </outline>
</glyph>
<glyph name="germandbls" format="1">
  <advance width="604"/>
  <unicode hex="00DF"/>
  <note>
germandbls
</note>
  <outline>
    <contour>
      <point x="114" y="493" type="curve" smooth="yes"/>
      <point x="31" y="0" type="line"/>
      <point x="174" y="0" type="line"/>
      <point x="258" y="504" type="line" smooth="yes"/>
      <point x="268" y="561"/>
      <point x="301" y="590"/>
      <point x="365" y="590" type="curve" smooth="yes"/>
      <point x="424" y="590"/>
      <point x="455" y="561"/>
      <point x="447" y="512" type="curve" smooth="yes"/>
      <point x="441" y="478" type="line" smooth="yes"/>
      <point x="433" y="430"/>
      <point x="410" y="410"/>
      <point x="356" y="410" type="curve" smooth="yes"/>
      <point x="312" y="410" type="line"/>
      <point x="295" y="310" type="line"/>
      <point x="333" y="310" type="line" smooth="yes"/>
      <point x="395" y="310"/>
      <point x="425" y="281"/>
      <point x="415" y="224" type="curve" smooth="yes"/>
      <point x="408" y="181" type="line" smooth="yes"/>
      <point x="399" y="127"/>
      <point x="371" y="103"/>
      <point x="309" y="103" type="curve" smooth="yes"/>
      <point x="246" y="103" type="line"/>
      <point x="229" y="0" type="line"/>
      <point x="303" y="0" type="line" smooth="yes"/>
      <point x="454" y="0"/>
      <point x="534" y="51"/>
      <point x="555" y="179" type="curve" smooth="yes"/>
      <point x="571" y="275"/>
      <point x="529" y="335"/>
      <point x="454" y="341" type="curve"/>
      <point x="460" y="373" type="line"/>
      <point x="541" y="378"/>
      <point x="578" y="416"/>
      <point x="592" y="499" type="curve" smooth="yes"/>
      <point x="612" y="616"/>
      <point x="534" y="691"/>
      <point x="388" y="699" type="curve" smooth="yes"/>
      <point x="234" y="708"/>
      <point x="138" y="634"/>
    </contour>
    <contour>
      <point x="44" y="431" type="line"/>
      <point x="180" y="431" type="line"/>
      <point x="198" y="534" type="line"/>
      <point x="61" y="534" type="line"/>
    </contour>
  </outline>
</glyph>
<glyph name="agrave" format="1">
  <advance width="553"/>
  <unicode hex="00E0"/>
  <note>
agrave
</note>
  <outline>
    <component base="a"/>
    <component base="gravecomb" xOffset="72"/>
    <contour>
      <point x="501" y="0" type="move" name="ogonek"/>
    </contour>
    <contour>
      <point x="317" y="534" type="move" name="top"/>
    </contour>
  </outline>
</glyph>
<glyph name="ae" format="1">
  <advance width="898"/>
  <unicode hex="00E6"/>
  <note>
ae
</note>
  <outline>
    <contour>
      <point x="155" y="-10" type="curve" smooth="yes"/>
      <point x="235" y="-10"/>
      <point x="313" y="26"/>
      <point x="351" y="117" type="curve"/>
      <point x="383" y="117" type="line"/>
      <point x="416" y="16"/>
      <point x="496" y="-10"/>
      <point x="593" y="-10" type="curve" smooth="yes"/>
      <point x="717" y="-10"/>
      <point x="802" y="51"/>
      <point x="841" y="172" type="curve"/>
      <point x="695" y="172" type="line"/>
      <point x="694" y="162" type="line"/>
      <point x="690" y="138"/>
      <point x="665" y="100"/>
      <point x="596" y="100" type="curve" smooth="yes"/>
      <point x="525" y="100"/>
      <point x="493" y="141"/>
      <point x="507" y="229" type="curve" smooth="yes"/>
      <point x="522" y="314" type="line" smooth="yes"/>
      <point x="536" y="400"/>
      <point x="568" y="437"/>
      <point x="639" y="437" type="curve" smooth="yes"/>
      <point x="711" y="437"/>
      <point x="743" y="394"/>
      <point x="728" y="309" type="curve" smooth="yes"/>
      <point x="722" y="274" type="line"/>
      <point x="826" y="329" type="line"/>
      <point x="464" y="329" type="line"/>
      <point x="448" y="239" type="line"/>
      <point x="858" y="239" type="line"/>
      <point x="864" y="273" type="line" smooth="yes"/>
      <point x="895" y="454"/>
      <point x="799" y="544"/>
      <point x="643" y="544" type="curve" smooth="yes"/>
      <point x="575" y="544"/>
      <point x="505" y="517"/>
      <point x="481" y="475" type="curve"/>
      <point x="449" y="475" type="line"/>
      <point x="433" y="521"/>
      <point x="385" y="544"/>
      <point x="304" y="544" type="curve" smooth="yes"/>
      <point x="170" y="544"/>
      <point x="89" y="490"/>
      <point x="54" y="362" type="curve"/>
      <point x="198" y="362" type="line"/>
      <point x="200" y="372" type="line"/>
      <point x="205" y="403"/>
      <point x="228" y="434"/>
      <point x="287" y="434" type="curve" smooth="yes"/>
      <point x="342" y="434"/>
      <point x="370" y="406"/>
      <point x="359" y="340" type="curve" smooth="yes"/>
      <point x="345" y="260" type="line"/>
      <point x="343" y="246" type="line"/>
      <point x="330" y="170" type="line" smooth="yes"/>
      <point x="322" y="123"/>
      <point x="290" y="97"/>
      <point x="230" y="97" type="curve" smooth="yes"/>
      <point x="180" y="97"/>
      <point x="150" y="119"/>
      <point x="156" y="154" type="curve" smooth="yes"/>
      <point x="158" y="170" type="line" smooth="yes"/>
      <point x="164" y="203"/>
      <point x="190" y="220"/>
      <point x="249" y="223" type="curve" smooth="yes"/>
      <point x="341" y="228" type="line"/>
      <point x="356" y="318" type="line"/>
      <point x="221" y="312" type="line" smooth="yes"/>
      <point x="97" y="306"/>
      <point x="26" y="254"/>
      <point x="9" y="156" type="curve" smooth="yes"/>
      <point x="-7" y="61"/>
      <point x="54" y="-10"/>
    </contour>
    <contour>
      <point x="475" y="534" type="move" name="top"/>
    </contour>
  </outline>
</glyph>
<glyph name="edieresis" format="1">
  <advance width="570"/>
  <unicode hex="00EB"/>
  <outline>
    <component base="e"/>
    <component base="dieresiscomb" xOffset="89"/>
    <contour>
      <point x="326" y="0" type="move" name="ogonek"/>
    </contour>
    <contour>
      <point x="334" y="534" type="move" name="top"/>
    </contour>
  </outline>
</glyph>
<glyph name="eth" format="1">
  <advance width="578"/>
  <unicode hex="00F0"/>
  <note>
eth
</note>
  <outline>
    <contour>
      <point x="263" y="-10" type="curve" smooth="yes"/>
      <point x="412" y="-10"/>
      <point x="511" y="82"/>
      <point x="542" y="269" type="curve" smooth="yes"/>
      <point x="574" y="458"/>
      <point x="488" y="620"/>
      <point x="437" y="690" type="curve"/>
      <point x="279" y="690" type="line"/>
      <point x="362" y="576"/>
      <point x="411" y="465"/>
      <point x="413" y="397" type="curve"/>
      <point x="381" y="397" type="line"/>
      <point x="370" y="465"/>
      <point x="321" y="494"/>
      <point x="256" y="494" type="curve" smooth="yes"/>
      <point x="142" y="494"/>
      <point x="56" y="407"/>
      <point x="32" y="261" type="curve" smooth="yes"/>
      <point x="2" y="80"/>
      <point x="105" y="-10"/>
    </contour>
    <contour>
      <point x="266" y="100" type="curve" smooth="yes"/>
      <point x="194" y="100"/>
      <point x="163" y="141"/>
      <point x="175" y="212" type="curve" smooth="yes"/>
      <point x="186" y="282" type="line" smooth="yes"/>
      <point x="198" y="354"/>
      <point x="229" y="389"/>
      <point x="300" y="389" type="curve" smooth="yes"/>
      <point x="372" y="389"/>
      <point x="403" y="348"/>
      <point x="391" y="277" type="curve" smooth="yes"/>
      <point x="379" y="207" type="line" smooth="yes"/>
      <point x="368" y="135"/>
      <point x="337" y="100"/>
    </contour>
    <contour>
      <point x="243" y="522" type="line"/>
      <point x="568" y="585" type="line"/>
      <point x="581" y="666" type="line"/>
      <point x="256" y="602" type="line"/>
    </contour>
  </outline>
</glyph>
<glyph name="oslash" format="1">
  <advance width="587"/>
  <unicode hex="00F8"/>
  <note>
oslash
</note>
  <outline>
    <contour>
      <point x="271" y="-10" type="curve" smooth="yes"/>
      <point x="419" y="-10"/>
      <point x="520" y="79"/>
      <point x="549" y="252" type="curve" smooth="yes"/>
      <point x="582" y="447"/>
      <point x="482" y="544"/>
      <point x="316" y="544" type="curve" smooth="yes"/>
      <point x="168" y="544"/>
      <point x="67" y="455"/>
      <point x="38" y="282" type="curve" smooth="yes"/>
      <point x="6" y="87"/>
      <point x="106" y="-10"/>
    </contour>
    <contour>
      <point x="272" y="98" type="curve" smooth="yes"/>
      <point x="197" y="98"/>
      <point x="163" y="142"/>
      <point x="178" y="229" type="curve" smooth="yes"/>
      <point x="192" y="311" type="line" smooth="yes"/>
      <point x="207" y="398"/>
      <point x="240" y="436"/>
      <point x="315" y="436" type="curve" smooth="yes"/>
      <point x="391" y="436"/>
      <point x="424" y="392"/>
      <point x="409" y="305" type="curve" smooth="yes"/>
      <point x="395" y="223" type="line" smooth="yes"/>
      <point x="381" y="136"/>
      <point x="347" y="98"/>
    </contour>
    <contour>
      <point x="-6" y="-10" type="line"/>
      <point x="85" y="-10" type="line"/>
      <point x="155" y="65" type="line"/>
      <point x="160" y="65" type="line"/>
      <point x="471" y="420" type="line"/>
      <point x="477" y="420" type="line"/>
      <point x="593" y="544" type="line"/>
      <point x="502" y="544" type="line"/>
      <point x="432" y="469" type="line"/>
      <point x="427" y="469" type="line"/>
      <point x="116" y="114" type="line"/>
      <point x="110" y="114" type="line"/>
    </contour>
    <contour>
      <point x="339" y="534" type="move" name="top"/>
    </contour>
  </outline>
</glyph>
<glyph name="thorn" format="1">
  <advance width="596"/>
  <unicode hex="00FE"/>
  <note>
thorn
</note>
  <outline>
    <contour>
      <point x="-6" y="-132" type="line"/>
      <point x="137" y="-132" type="line"/>
      <point x="154" y="-26" type="line" smooth="yes"/>
      <point x="159" y="4"/>
      <point x="164" y="36"/>
      <point x="169" y="99" type="curve"/>
      <point x="201" y="99" type="line"/>
      <point x="208" y="26"/>
      <point x="251" y="-10"/>
      <point x="327" y="-10" type="curve" smooth="yes"/>
      <point x="446" y="-10"/>
      <point x="530" y="79"/>
      <point x="559" y="252" type="curve" smooth="yes"/>
      <point x="588" y="425"/>
      <point x="526" y="544"/>
      <point x="397" y="544" type="curve" smooth="yes"/>
      <point x="326" y="544"/>
      <point x="280" y="508"/>
      <point x="254" y="435" type="curve"/>
      <point x="222" y="435" type="line"/>
      <point x="239" y="498"/>
      <point x="248" y="530"/>
      <point x="253" y="561" type="curve" smooth="yes"/>
      <point x="275" y="690" type="line"/>
      <point x="76" y="690" type="line"/>
      <point x="59" y="587" type="line"/>
      <point x="114" y="587" type="line"/>
    </contour>
    <contour>
      <point x="286" y="100" type="curve" smooth="yes"/>
      <point x="215" y="100"/>
      <point x="183" y="143"/>
      <point x="197" y="229" type="curve" smooth="yes"/>
      <point x="211" y="311" type="line" smooth="yes"/>
      <point x="226" y="396"/>
      <point x="257" y="434"/>
      <point x="329" y="434" type="curve" smooth="yes"/>
      <point x="400" y="434"/>
      <point x="432" y="391"/>
      <point x="417" y="305" type="curve" smooth="yes"/>
      <point x="403" y="223" type="line" smooth="yes"/>
      <point x="389" y="138"/>
      <point x="357" y="100"/>
    </contour>
  </outline>
</glyph>
<glyph name="Idotaccent" format="1">
  <advance width="359"/>
  <unicode hex="0130"/>
  <outline>
    <component base="I"/>
    <component base="dotaccentcomb.case" xOffset="-13" yOffset="40"/>
    <contour>
      <point x="251" y="690" type="move" name="top"/>
    </contour>
  </outline>
</glyph>
<glyph name="IJ" format="1">
  <advance width="703"/>
  <unicode hex="0132"/>
  <outline>
    <contour>
      <point x="348" y="-10" type="curve" smooth="yes"/>
      <point x="510" y="-10"/>
      <point x="603" y="74"/>
      <point x="634" y="259" type="curve" smooth="yes"/>
      <point x="707" y="690" type="line"/>
      <point x="560" y="690" type="line"/>
      <point x="484" y="239" type="line" smooth="yes"/>
      <point x="468" y="145"/>
      <point x="432" y="104"/>
      <point x="349" y="104" type="curve" smooth="yes"/>
      <point x="267" y="104"/>
      <point x="228" y="151"/>
      <point x="243" y="241" type="curve" smooth="yes"/>
      <point x="251" y="288" type="line"/>
      <point x="104" y="288" type="line"/>
      <point x="102" y="275" type="line" smooth="yes"/>
      <point x="68" y="72"/>
      <point x="177" y="-10"/>
    </contour>
    <contour>
      <point x="63" y="322" type="line"/>
      <point x="303" y="322" type="line"/>
      <point x="320" y="425" type="line"/>
      <point x="268" y="425" type="line"/>
      <point x="295" y="583" type="line"/>
      <point x="347" y="583" type="line"/>
      <point x="365" y="690" type="line"/>
      <point x="125" y="690" type="line"/>
      <point x="107" y="583" type="line"/>
      <point x="159" y="583" type="line"/>
      <point x="132" y="425" type="line"/>
      <point x="80" y="425" type="line"/>
    </contour>
    <contour>
      <point x="440" y="583" type="line"/>
      <point x="607" y="583" type="line"/>
      <point x="625" y="690" type="line"/>
      <point x="458" y="690" type="line"/>
    </contour>
  </outline>
</glyph>
<glyph name="Lslash" format="1">
  <advance width="597"/>
  <unicode hex="0141"/>
  <note>
Lslash
</note>
  <outline>
    <contour>
      <point x="18" y="172" type="line"/>
      <point x="397" y="348" type="line"/>
      <point x="416" y="457" type="line"/>
      <point x="37" y="281" type="line"/>
    </contour>
    <contour>
      <point x="52" y="0" type="line"/>
      <point x="523" y="0" type="line"/>
      <point x="558" y="211" type="line"/>
      <point x="437" y="211" type="line"/>
      <point x="419" y="107" type="line"/>
      <point x="216" y="107" type="line"/>
      <point x="296" y="583" type="line"/>
      <point x="359" y="583" type="line"/>
      <point x="377" y="690" type="line"/>
      <point x="105" y="690" type="line"/>
      <point x="87" y="583" type="line"/>
      <point x="150" y="583" type="line"/>
    </contour>
  </outline>
</glyph>
<glyph name="OE" format="1">
  <advance width="989"/>
  <unicode hex="0152"/>
  <note>
OE
</note>
  <outline>
    <contour>
      <point x="302" y="0" type="curve" smooth="yes"/>
      <point x="477" y="0" type="line"/>
      <point x="495" y="107" type="line"/>
      <point x="326" y="107" type="line" smooth="yes"/>
      <point x="223" y="107"/>
      <point x="177" y="164"/>
      <point x="197" y="285" type="curve" smooth="yes"/>
      <point x="218" y="410" type="line" smooth="yes"/>
      <point x="238" y="531"/>
      <point x="285" y="583"/>
      <point x="388" y="583" type="curve" smooth="yes"/>
      <point x="574" y="583" type="line"/>
      <point x="592" y="690" type="line"/>
      <point x="392" y="690" type="line" smooth="yes"/>
      <point x="195" y="690"/>
      <point x="95" y="602"/>
      <point x="55" y="362" type="curve" smooth="yes"/>
      <point x="16" y="122"/>
      <point x="105" y="0"/>
    </contour>
    <contour>
      <point x="855" y="483" type="line"/>
      <point x="977" y="483" type="line"/>
      <point x="1012" y="690" type="line"/>
      <point x="531" y="690" type="line"/>
      <point x="415" y="0" type="line"/>
      <point x="900" y="0" type="line"/>
      <point x="936" y="211" type="line"/>
      <point x="814" y="211" type="line"/>
      <point x="796" y="107" type="line"/>
      <point x="580" y="107" type="line"/>
      <point x="613" y="302" type="line"/>
      <point x="844" y="302" type="line"/>
      <point x="860" y="402" type="line"/>
      <point x="630" y="402" type="line"/>
      <point x="660" y="583" type="line"/>
      <point x="872" y="583" type="line"/>
    </contour>
    <contour>
      <point x="900" y="0" type="move" name="ogonek"/>
    </contour>
    <contour>
      <point x="769" y="690" type="move" name="top"/>
    </contour>
  </outline>
</glyph>
<glyph name="Zacute" format="1">
  <advance width="569"/>
  <unicode hex="0179"/>
  <outline>
    <component base="Z"/>
    <component base="acutecomb.case" xOffset="92" yOffset="40"/>
    <contour>
      <point x="356" y="690" type="move" name="top"/>
    </contour>
  </outline>
</glyph>
<glyph name="jdotless" format="1">
  <advance width="272"/>
  <unicode hex="0237"/>
  <outline>
    <contour>
      <point x="-62" y="-132" type="line"/>
      <point x="63" y="-132" type="line" smooth="yes"/>
      <point x="117" y="-132"/>
      <point x="150" y="-104"/>
      <point x="159" y="-50" type="curve" smooth="yes"/>
      <point x="257" y="534" type="line"/>
      <point x="57" y="534" type="line"/>
      <point x="39" y="431" type="line"/>
      <point x="97" y="431" type="line"/>
      <point x="20" y="-29" type="line"/>
      <point x="-44" y="-29" type="line"/>
    </contour>
    <contour>
      <point x="184" y="534" type="move" name="top"/>
    </contour>
  </outline>
</glyph>
<glyph name="caron" format="1">
  <advance width="400"/>
  <unicode hex="02C7"/>
  <outline>
    <component base="caroncomb" identifier="2973A7EB"/>
    <contour>
      <point x="245" y="534" type="move" name="_top"/>
    </contour>
  </outline>
</glyph>
<glyph name="breve" format="1">
  <advance width="400"/>
  <unicode hex="02D8"/>
  <outline>
    <contour>
      <point x="262" y="570" type="curve" smooth="yes"/>
      <point x="358" y="570"/>
      <point x="414" y="614"/>
      <point x="437" y="701" type="curve"/>
      <point x="322" y="701" type="line"/>
      <point x="322" y="700" type="line"/>
      <point x="318" y="673"/>
      <point x="298" y="657"/>
      <point x="267" y="657" type="curve" smooth="yes"/>
      <point x="236" y="657"/>
      <point x="219" y="673"/>
      <point x="223" y="700" type="curve"/>
      <point x="223" y="701" type="line"/>
      <point x="108" y="701" type="line"/>
      <point x="111" y="614"/>
      <point x="166" y="570"/>
    </contour>
    <contour>
      <point x="245" y="534" type="move" name="_top"/>
    </contour>
  </outline>
</glyph>
<glyph name="dotaccent" format="1">
  <advance width="400"/>
  <unicode hex="02D9"/>
  <outline>
    <component base="dotaccentcomb" identifier="43AB2E85"/>
    <contour>
      <point x="245" y="534" type="move" name="_top"/>
    </contour>
  </outline>
</glyph>
<glyph name="dotaccentcomb" format="1">
  <advance width="0"/>
  <unicode hex="0307"/>
  <outline>
    <contour>
      <point x="174" y="574" type="line"/>
      <point x="328" y="574" type="line"/>
      <point x="348" y="690" type="line"/>
      <point x="194" y="690" type="line"/>
    </contour>
    <contour>
      <point x="245" y="534" type="move" name="_top"/>
    </contour>
  </outline>
</glyph>
<glyph name="ringcomb" format="1">
  <advance width="0"/>
  <unicode hex="030A"/>
  <note>
ring
</note>
  <outline>
    <contour>
      <point x="259" y="566" type="curve" smooth="yes"/>
      <point x="319" y="566"/>
      <point x="365" y="601"/>
      <point x="374" y="656" type="curve" smooth="yes"/>
      <point x="386" y="722"/>
      <point x="337" y="759"/>
      <point x="274" y="759" type="curve" smooth="yes"/>
      <point x="214" y="759"/>
      <point x="168" y="725"/>
      <point x="158" y="670" type="curve" smooth="yes"/>
      <point x="148" y="604"/>
      <point x="194" y="566"/>
    </contour>
    <contour>
      <point x="262" y="623" type="curve" smooth="yes"/>
      <point x="239" y="623"/>
      <point x="227" y="638"/>
      <point x="231" y="663" type="curve" smooth="yes"/>
      <point x="232" y="669" type="line" smooth="yes"/>
      <point x="236" y="690"/>
      <point x="248" y="703"/>
      <point x="271" y="703" type="curve" smooth="yes"/>
      <point x="295" y="703"/>
      <point x="306" y="688"/>
      <point x="302" y="663" type="curve" smooth="yes"/>
      <point x="301" y="657" type="line" smooth="yes"/>
      <point x="297" y="635"/>
      <point x="286" y="623"/>
    </contour>
    <contour>
      <point x="245" y="534" type="move" name="_top"/>
    </contour>
  </outline>
</glyph>
<glyph name="caroncomb" format="1">
  <advance width="0"/>
  <unicode hex="030C"/>
  <outline>
    <contour>
      <point x="447" y="701" type="line"/>
      <point x="329" y="701" type="line"/>
      <point x="279" y="661" type="line"/>
      <point x="246" y="661" type="line"/>
      <point x="209" y="701" type="line"/>
      <point x="98" y="701" type="line"/>
      <point x="175" y="574" type="line"/>
      <point x="327" y="574" type="line"/>
    </contour>
    <contour>
      <point x="245" y="534" type="move" name="_top"/>
    </contour>
  </outline>
</glyph>
<glyph name="pi" format="1">
  <advance width="656"/>
  <unicode hex="03C0"/>
  <outline>
    <contour>
      <point x="449" y="0" type="curve" smooth="yes"/>
      <point x="572" y="0" type="line"/>
      <point x="589" y="103" type="line"/>
      <point x="515" y="103" type="line"/>
      <point x="578" y="479" type="line"/>
      <point x="435" y="479" type="line"/>
      <point x="370" y="94" type="line" smooth="yes"/>
      <point x="360" y="33"/>
      <point x="388" y="0"/>
    </contour>
    <contour>
      <point x="55" y="0" type="line"/>
      <point x="197" y="0" type="line"/>
      <point x="278" y="479" type="line"/>
      <point x="135" y="479" type="line"/>
    </contour>
    <contour>
      <point x="52" y="431" type="line"/>
      <point x="644" y="431" type="line"/>
      <point x="662" y="534" type="line"/>
      <point x="70" y="534" type="line"/>
    </contour>
  </outline>
</glyph>
<glyph name="Germandbls" format="1">
  <advance width="668"/>
  <unicode hex="1E9E"/>
  <outline>
    <contour>
      <point x="49" y="0" type="line"/>
      <point x="195" y="0" type="line"/>
      <point x="294" y="583" type="line"/>
      <point x="502" y="583" type="line"/>
      <point x="364" y="410" type="line"/>
      <point x="348" y="311" type="line"/>
      <point x="391" y="311" type="line" smooth="yes"/>
      <point x="454" y="311"/>
      <point x="484" y="282"/>
      <point x="474" y="225" type="curve" smooth="yes"/>
      <point x="467" y="184" type="line" smooth="yes"/>
      <point x="458" y="130"/>
      <point x="430" y="107"/>
      <point x="367" y="107" type="curve" smooth="yes"/>
      <point x="269" y="107" type="line"/>
      <point x="252" y="0" type="line"/>
      <point x="363" y="0" type="line" smooth="yes"/>
      <point x="516" y="0"/>
      <point x="597" y="54"/>
      <point x="619" y="191" type="curve" smooth="yes"/>
      <point x="641" y="324"/>
      <point x="571" y="409"/>
      <point x="427" y="409" type="curve" smooth="yes"/>
      <point x="407" y="409" type="line"/>
      <point x="471" y="345" type="line"/>
      <point x="666" y="583" type="line"/>
      <point x="684" y="690" type="line"/>
      <point x="102" y="690" type="line"/>
      <point x="84" y="583" type="line"/>
      <point x="147" y="583" type="line"/>
    </contour>
  </outline>
</glyph>
<glyph name="endash" format="1">
  <advance width="559"/>
  <unicode hex="2013"/>
  <outline>
    <contour>
      <point x="50" y="233" type="line"/>
      <point x="497" y="233" type="line"/>
      <point x="515" y="335" type="line"/>
      <point x="68" y="335" type="line"/>
    </contour>
  </outline>
</glyph>
<glyph name="quoteleft" format="1">
  <advance width="238"/>
  <unicode hex="2018"/>
  <outline>
    <contour>
      <point x="265" y="690" type="line"/>
      <point x="189" y="690" type="line"/>
      <point x="95" y="592" type="line"/>
      <point x="70" y="445" type="line"/>
      <point x="223" y="445" type="line"/>
      <point x="248" y="592" type="line"/>
      <point x="175" y="592" type="line"/>
    </contour>
  </outline>
</glyph>
<glyph name="quotedblleft" format="1">
  <advance width="400"/>
  <unicode hex="201C"/>
  <outline>
    <contour>
      <point x="438" y="689" type="line"/>
      <point x="362" y="689" type="line"/>
      <point x="268" y="591" type="line"/>
      <point x="243" y="444" type="line"/>
      <point x="396" y="444" type="line"/>
      <point x="421" y="591" type="line"/>
      <point x="348" y="591" type="line"/>
    </contour>
    <contour>
      <point x="257" y="689" type="line"/>
      <point x="181" y="689" type="line"/>
      <point x="87" y="591" type="line"/>
      <point x="62" y="444" type="line"/>
      <point x="215" y="444" type="line"/>
      <point x="240" y="591" type="line"/>
      <point x="167" y="591" type="line"/>
    </contour>
  </outline>
</glyph>
<glyph name="dagger" format="1">
  <advance width="429"/>
  <unicode hex="2020"/>
  <outline>
    <contour>
      <point x="49" y="438" type="line"/>
      <point x="438" y="438" type="line"/>
      <point x="454" y="534" type="line"/>
      <point x="374" y="534" type="line"/>
      <point x="294" y="491" type="line"/>
      <point x="288" y="496" type="line"/>
      <point x="328" y="589" type="line"/>
      <point x="346" y="690" type="line"/>
      <point x="226" y="690" type="line"/>
      <point x="208" y="589" type="line"/>
      <point x="218" y="496" type="line"/>
      <point x="210" y="491" type="line"/>
      <point x="145" y="534" type="line"/>
      <point x="65" y="534" type="line"/>
    </contour>
    <contour>
      <point x="131" y="0" type="line"/>
      <point x="208" y="0" type="line"/>
      <point x="292" y="329" type="line"/>
      <point x="284" y="452" type="line"/>
      <point x="207" y="452" type="line"/>
      <point x="158" y="329" type="line"/>
    </contour>
  </outline>
</glyph>
<glyph name="bullet" format="1">
  <advance width="382"/>
  <unicode hex="2022"/>
  <outline>
    <contour>
      <point x="72" y="184" type="line"/>
      <point x="280" y="184" type="line"/>
      <point x="314" y="384" type="line"/>
      <point x="106" y="384" type="line"/>
    </contour>
  </outline>
</glyph>
<glyph name="fraction" format="1">
  <advance width="34"/>
  <unicode hex="2044"/>
  <note>
fraction
</note>
  <outline>
    <contour>
      <point x="-318" y="0" type="line"/>
      <point x="-199" y="0" type="line"/>
      <point x="14" y="322" type="line"/>
      <point x="-105" y="322" type="line"/>
    </contour>
    <contour>
      <point x="46" y="368" type="line"/>
      <point x="165" y="368" type="line"/>
      <point x="378" y="690" type="line"/>
      <point x="259" y="690" type="line"/>
    </contour>
  </outline>
</glyph>
<glyph name="foursuperior" format="1">
  <advance width="355"/>
  <unicode hex="2074"/>
  <note>
uniF009
</note>
  <outline>
    <contour>
      <point x="48" y="426" type="line"/>
      <point x="363" y="426" type="line"/>
      <point x="374" y="493" type="line"/>
      <point x="172" y="493" type="line"/>
      <point x="303" y="690" type="line"/>
      <point x="189" y="690" type="line"/>
      <point x="59" y="493" type="line"/>
    </contour>
    <contour>
      <point x="208" y="368" type="line"/>
      <point x="311" y="368" type="line"/>
      <point x="346" y="572" type="line"/>
      <point x="275" y="572" type="line"/>
      <point x="233" y="522" type="line"/>
    </contour>
  </outline>
</glyph>
<glyph name="Ohm" format="1">
  <advance width="702"/>
  <unicode hex="2126"/>
  <outline>
    <contour>
      <point x="1" y="0" type="line"/>
      <point x="248" y="0" type="line"/>
      <point x="271" y="129" type="line"/>
      <point x="223" y="177"/>
      <point x="194" y="244"/>
      <point x="209" y="335" type="curve" smooth="yes"/>
      <point x="226" y="434" type="line" smooth="yes"/>
      <point x="243" y="534"/>
      <point x="303" y="586"/>
      <point x="394" y="586" type="curve" smooth="yes"/>
      <point x="486" y="586"/>
      <point x="547" y="528"/>
      <point x="529" y="424" type="curve" smooth="yes"/>
      <point x="513" y="326" type="line" smooth="yes"/>
      <point x="498" y="238"/>
      <point x="446" y="172"/>
      <point x="385" y="129" type="curve"/>
      <point x="363" y="0" type="line"/>
      <point x="610" y="0" type="line"/>
      <point x="628" y="104" type="line"/>
      <point x="480" y="104" type="line"/>
      <point x="486" y="136" type="line"/>
      <point x="588" y="176"/>
      <point x="655" y="245"/>
      <point x="675" y="370" type="curve" smooth="yes"/>
      <point x="710" y="582"/>
      <point x="584" y="700"/>
      <point x="399" y="700" type="curve" smooth="yes"/>
      <point x="227" y="700"/>
      <point x="97" y="595"/>
      <point x="66" y="406" type="curve" smooth="yes"/>
      <point x="46" y="280"/>
      <point x="82" y="183"/>
      <point x="171" y="136" type="curve"/>
      <point x="166" y="104" type="line"/>
      <point x="19" y="104" type="line"/>
    </contour>
  </outline>
</glyph>
<glyph name="summation" format="1">
  <advance width="572"/>
  <unicode hex="2211"/>
  <outline>
    <contour>
      <point x="-8" y="0" type="line"/>
      <point x="491" y="0" type="line"/>
      <point x="512" y="122" type="line"/>
      <point x="195" y="122" type="line"/>
      <point x="416" y="345" type="line"/>
      <point x="260" y="568" type="line"/>
      <point x="584" y="568" type="line"/>
      <point x="605" y="690" type="line"/>
      <point x="108" y="690" type="line"/>
      <point x="90" y="583" type="line"/>
      <point x="242" y="351" type="line"/>
      <point x="10" y="107" type="line"/>
    </contour>
  </outline>
</glyph>
<glyph name="integral" format="1">
  <advance width="331"/>
  <unicode hex="222B"/>
  <outline>
    <contour>
      <point x="-16" y="0" type="line"/>
      <point x="143" y="0" type="line" smooth="yes"/>
      <point x="170" y="0"/>
      <point x="186" y="13"/>
      <point x="190" y="40" type="curve" smooth="yes"/>
      <point x="282" y="583" type="line"/>
      <point x="355" y="583" type="line"/>
      <point x="373" y="690" type="line"/>
      <point x="214" y="690" type="line" smooth="yes"/>
      <point x="187" y="690"/>
      <point x="172" y="677"/>
      <point x="167" y="650" type="curve" smooth="yes"/>
      <point x="76" y="107" type="line"/>
      <point x="2" y="107" type="line"/>
    </contour>
  </outline>
</glyph>
<glyph name="notequal" format="1">
  <advance width="474"/>
  <unicode hex="2260"/>
  <outline>
    <contour>
      <point x="75" y="120" type="line"/>
      <point x="176" y="120" type="line"/>
      <point x="423" y="554" type="line"/>
      <point x="323" y="554" type="line"/>
    </contour>
    <contour>
      <point x="42" y="368" type="line"/>
      <point x="467" y="368" type="line"/>
      <point x="484" y="470" type="line"/>
      <point x="59" y="470" type="line"/>
    </contour>
    <contour>
      <point x="14" y="204" type="line"/>
      <point x="439" y="204" type="line"/>
      <point x="456" y="306" type="line"/>
      <point x="31" y="306" type="line"/>
    </contour>
  </outline>
</glyph>
<glyph name="lessequal" format="1">
  <advance width="474"/>
  <unicode hex="2264"/>
  <outline>
    <contour>
      <point x="430" y="167" type="line"/>
      <point x="448" y="271" type="line"/>
      <point x="149" y="357" type="line"/>
      <point x="155" y="390" type="line"/>
      <point x="482" y="476" type="line"/>
      <point x="501" y="589" type="line"/>
      <point x="54" y="456" type="line"/>
      <point x="29" y="300" type="line"/>
    </contour>
    <contour>
      <point x="-19" y="13" type="line"/>
      <point x="406" y="13" type="line"/>
      <point x="423" y="116" type="line"/>
      <point x="-2" y="116" type="line"/>
    </contour>
  </outline>
</glyph>
<glyph name="greaterequal" format="1">
  <advance width="474"/>
  <unicode hex="2265"/>
  <outline>
    <contour>
      <point x="10" y="167" type="line"/>
      <point x="457" y="300" type="line"/>
      <point x="483" y="456" type="line"/>
      <point x="81" y="589" type="line"/>
      <point x="63" y="485" type="line"/>
      <point x="362" y="399" type="line"/>
      <point x="356" y="366" type="line"/>
      <point x="29" y="280" type="line"/>
    </contour>
    <contour>
      <point x="-16" y="13" type="line"/>
      <point x="409" y="13" type="line"/>
      <point x="426" y="116" type="line"/>
      <point x="1" y="116" type="line"/>
    </contour>
  </outline>
</glyph>
<glyph name="lozenge" format="1">
  <advance width="665"/>
  <unicode hex="25CA"/>
  <outline>
    <contour>
      <point x="226" y="0" type="line"/>
      <point x="349" y="0" type="line"/>
      <point x="641" y="337" type="line"/>
      <point x="465" y="690" type="line"/>
      <point x="342" y="690" type="line"/>
      <point x="49" y="353" type="line"/>
    </contour>
    <contour>
      <point x="289" y="135" type="line"/>
      <point x="188" y="345" type="line"/>
      <point x="369" y="555" type="line"/>
      <point x="402" y="555" type="line"/>
      <point x="505" y="345" type="line"/>
      <point x="322" y="135" type="line"/>
    </contour>
  </outline>
</glyph>
<glyph name="A.ss03" format="1">
  <advance width="625"/>
  <outline>
    <contour>
      <point x="-32" y="0" type="line"/>
      <point x="119" y="0" type="line"/>
      <point x="349" y="569" type="line"/>
      <point x="381" y="569" type="line"/>
      <point x="420" y="0" type="line"/>
      <point x="567" y="0" type="line"/>
      <point x="516" y="690" type="line"/>
      <point x="251" y="690" type="line"/>
    </contour>
    <contour>
      <point x="117" y="153" type="line"/>
      <point x="458" y="153" type="line"/>
      <point x="473" y="255" type="line"/>
      <point x="135" y="255" type="line"/>
    </contour>
    <contour>
      <point x="567" y="0" type="move" name="ogonek"/>
    </contour>
    <contour>
      <point x="380" y="690" type="move" name="top"/>
    </contour>
  </outline>
</glyph>
<glyph name="Aogonek.ss03" format="1">
  <advance width="625"/>
  <outline>
    <contour>
      <point x="-32" y="0" type="line"/>
      <point x="119" y="0" type="line"/>
      <point x="349" y="569" type="line"/>
      <point x="381" y="569" type="line"/>
      <point x="420" y="0" type="line"/>
      <point x="567" y="0" type="line"/>
      <point x="516" y="690" type="line"/>
      <point x="251" y="690" type="line"/>
    </contour>
    <contour>
      <point x="117" y="153" type="line"/>
      <point x="458" y="153" type="line"/>
      <point x="473" y="255" type="line"/>
      <point x="135" y="255" type="line"/>
    </contour>
    <contour>
      <point x="442" y="-143" type="curve" smooth="yes"/>
      <point x="550" y="-143" type="line"/>
      <point x="563" y="-64" type="line"/>
      <point x="494" y="-64" type="line" smooth="yes"/>
      <point x="477" y="-64"/>
      <point x="470" y="-58"/>
      <point x="472" y="-45" type="curve" smooth="yes"/>
      <point x="475" y="-27"/>
      <point x="499" y="-15"/>
      <point x="567" y="0" type="curve"/>
      <point x="465" y="19" type="line"/>
      <point x="459" y="-20" type="line"/>
      <point x="397" y="-28"/>
      <point x="371" y="-42"/>
      <point x="365" y="-79" type="curve" smooth="yes"/>
      <point x="359" y="-117"/>
      <point x="386" y="-143"/>
    </contour>
    <contour>
      <point x="567" y="0" type="move" name="ogonek"/>
    </contour>
    <contour>
      <point x="380" y="690" type="move" name="top"/>
    </contour>
  </outline>
</glyph>
<glyph name="F.ss03" format="1">
  <advance width="578"/>
  <outline>
    <contour>
      <point x="25" y="0" type="line"/>
      <point x="171" y="0" type="line"/>
      <point x="222" y="302" type="line"/>
      <point x="453" y="302" type="line"/>
      <point x="469" y="402" type="line"/>
      <point x="239" y="402" type="line"/>
      <point x="269" y="583" type="line"/>
      <point x="481" y="583" type="line"/>
      <point x="465" y="483" type="line"/>
      <point x="586" y="483" type="line"/>
      <point x="621" y="690" type="line"/>
      <point x="141" y="690" type="line"/>
    </contour>
  </outline>
</glyph>
<glyph name="Germandbls.ss03" format="1">
  <advance width="643"/>
  <outline>
    <contour>
      <point x="22" y="0" type="line"/>
      <point x="168" y="0" type="line"/>
      <point x="266" y="583" type="line"/>
      <point x="475" y="583" type="line"/>
      <point x="337" y="410" type="line"/>
      <point x="320" y="311" type="line"/>
      <point x="364" y="311" type="line" smooth="yes"/>
      <point x="427" y="311"/>
      <point x="457" y="282"/>
      <point x="447" y="225" type="curve" smooth="yes"/>
      <point x="440" y="184" type="line" smooth="yes"/>
      <point x="431" y="130"/>
      <point x="403" y="107"/>
      <point x="340" y="107" type="curve" smooth="yes"/>
      <point x="242" y="107" type="line"/>
      <point x="224" y="0" type="line"/>
      <point x="336" y="0" type="line" smooth="yes"/>
      <point x="489" y="0"/>
      <point x="569" y="54"/>
      <point x="592" y="191" type="curve" smooth="yes"/>
      <point x="613" y="324"/>
      <point x="544" y="409"/>
      <point x="400" y="409" type="curve" smooth="yes"/>
      <point x="380" y="409" type="line"/>
      <point x="444" y="345" type="line"/>
      <point x="639" y="583" type="line"/>
      <point x="657" y="690" type="line"/>
      <point x="138" y="690" type="line"/>
    </contour>
  </outline>
</glyph>
<glyph name="L.ss03" format="1">
  <advance width="568"/>
  <outline>
    <contour>
      <point x="25" y="0" type="line"/>
      <point x="496" y="0" type="line"/>
      <point x="531" y="211" type="line"/>
      <point x="410" y="211" type="line"/>
      <point x="392" y="107" type="line"/>
      <point x="189" y="107" type="line"/>
      <point x="287" y="690" type="line"/>
      <point x="141" y="690" type="line"/>
    </contour>
    <contour>
      <point x="267" y="690" type="line"/>
      <point x="249" y="583" type="line"/>
      <point x="332" y="583" type="line"/>
      <point x="350" y="690" type="line"/>
    </contour>
  </outline>
</glyph>
<glyph name="N.ss03" format="1">
  <advance width="677"/>
  <outline>
    <contour>
      <point x="24" y="0" type="line"/>
      <point x="167" y="0" type="line"/>
      <point x="225" y="347" type="line" smooth="yes"/>
      <point x="230" y="378"/>
      <point x="232" y="410"/>
      <point x="236" y="473" type="curve"/>
      <point x="269" y="473" type="line"/>
      <point x="436" y="0" type="line"/>
      <point x="563" y="0" type="line"/>
      <point x="679" y="690" type="line"/>
      <point x="536" y="690" type="line"/>
      <point x="494" y="437" type="line" smooth="yes"/>
      <point x="489" y="406"/>
      <point x="486" y="374"/>
      <point x="483" y="311" type="curve"/>
      <point x="450" y="311" type="line"/>
      <point x="306" y="690" type="line"/>
      <point x="140" y="690" type="line"/>
    </contour>
    <contour>
      <point x="410" y="690" type="move" name="top"/>
    </contour>
  </outline>
</glyph>
<glyph name="R.ss03" format="1">
  <advance width="646"/>
  <outline>
    <contour>
      <point x="24" y="0" type="line"/>
      <point x="170" y="0" type="line"/>
      <point x="220" y="295" type="line"/>
      <point x="347" y="295" type="line" smooth="yes"/>
      <point x="397" y="295"/>
      <point x="421" y="268"/>
      <point x="411" y="213" type="curve" smooth="yes"/>
      <point x="376" y="0" type="line"/>
      <point x="581" y="0" type="line"/>
      <point x="599" y="107" type="line"/>
      <point x="537" y="107" type="line"/>
      <point x="550" y="187" type="line" smooth="yes"/>
      <point x="565" y="272"/>
      <point x="531" y="320"/>
      <point x="458" y="324" type="curve"/>
      <point x="464" y="356" type="line"/>
      <point x="561" y="361"/>
      <point x="607" y="397"/>
      <point x="622" y="487" type="curve" smooth="yes"/>
      <point x="643" y="608"/>
      <point x="569" y="690"/>
      <point x="434" y="690" type="curve"/>
      <point x="140" y="690" type="line"/>
    </contour>
    <contour>
      <point x="388" y="395" type="curve" smooth="yes"/>
      <point x="237" y="395" type="line"/>
      <point x="269" y="583" type="line"/>
      <point x="409" y="583" type="line" smooth="yes"/>
      <point x="459" y="583"/>
      <point x="482" y="556"/>
      <point x="474" y="504" type="curve" smooth="yes"/>
      <point x="467" y="466" type="line" smooth="yes"/>
      <point x="459" y="417"/>
      <point x="437" y="395"/>
    </contour>
  </outline>
</glyph>
<glyph name="Thorn.ss03" format="1">
  <advance width="615"/>
  <note>
Thorn
</note>
  <outline>
    <contour>
      <point x="135" y="148" type="line"/>
      <point x="354" y="148" type="line" smooth="yes"/>
      <point x="497" y="148"/>
      <point x="573" y="202"/>
      <point x="595" y="337" type="curve" smooth="yes"/>
      <point x="617" y="473"/>
      <point x="548" y="556"/>
      <point x="403" y="556" type="curve" smooth="yes"/>
      <point x="203" y="556" type="line"/>
      <point x="186" y="456" type="line"/>
      <point x="379" y="456" type="line" smooth="yes"/>
      <point x="434" y="456"/>
      <point x="460" y="427"/>
      <point x="451" y="371" type="curve" smooth="yes"/>
      <point x="443" y="327" type="line" smooth="yes"/>
      <point x="434" y="272"/>
      <point x="410" y="248"/>
      <point x="355" y="248" type="curve" smooth="yes"/>
      <point x="152" y="248" type="line"/>
    </contour>
    <contour>
      <point x="23" y="0" type="line"/>
      <point x="169" y="0" type="line"/>
      <point x="285" y="690" type="line"/>
      <point x="139" y="690" type="line"/>
    </contour>
  </outline>
</glyph>
<glyph name="U.ss03" format="1">
  <advance width="684"/>
  <outline>
    <contour>
      <point x="232" y="-10" type="curve" smooth="yes"/>
      <point x="333" y="-10"/>
      <point x="390" y="34"/>
      <point x="423" y="124" type="curve"/>
      <point x="456" y="124" type="line"/>
      <point x="451" y="92" type="line" smooth="yes"/>
      <point x="441" y="33"/>
      <point x="468" y="0"/>
      <point x="530" y="0" type="curve" smooth="yes"/>
      <point x="625" y="0" type="line"/>
      <point x="643" y="107" type="line"/>
      <point x="580" y="107" type="line"/>
      <point x="678" y="690" type="line"/>
      <point x="532" y="690" type="line"/>
      <point x="458" y="251" type="line" smooth="yes"/>
      <point x="441" y="152"/>
      <point x="403" y="104"/>
      <point x="317" y="104" type="curve" smooth="yes"/>
      <point x="231" y="104"/>
      <point x="190" y="152"/>
      <point x="208" y="255" type="curve" smooth="yes"/>
      <point x="281" y="690" type="line"/>
      <point x="134" y="690" type="line"/>
      <point x="56" y="228" type="line" smooth="yes"/>
      <point x="31" y="77"/>
      <point x="99" y="-10"/>
    </contour>
    <contour>
      <point x="406" y="690" type="move" name="top"/>
    </contour>
  </outline>
</glyph>
<glyph name=".notdef" format="1">
  <advance width="664"/>
  <outline>
    <contour>
      <point x="30" y="0" type="line"/>
      <point x="543" y="0" type="line"/>
      <point x="659" y="690" type="line"/>
      <point x="146" y="690" type="line"/>
    </contour>
    <contour>
      <point x="157" y="103" type="line"/>
      <point x="238" y="587" type="line"/>
      <point x="533" y="587" type="line"/>
      <point x="452" y="103" type="line"/>
    </contour>
  </outline>
</glyph>
<glyph name="aogonek.ss01" format="1">
  <advance width="615"/>
  <outline>
    <component base="a.ss01"/>
    <component base="ogonekcomb" xOffset="386"/>
    <contour>
      <point x="541" y="0" type="move" name="ogonek"/>
    </contour>
    <contour>
      <point x="332" y="534" type="move" name="top"/>
    </contour>
  </outline>
</glyph>
<glyph name="f_h" format="1">
  <advance width="966"/>
  <outline>
    <contour>
      <point x="160" y="608" type="curve" smooth="yes"/>
      <point x="58" y="0" type="line"/>
      <point x="201" y="0" type="line"/>
      <point x="299" y="587" type="line"/>
      <point x="407" y="587" type="line"/>
      <point x="425" y="690" type="line"/>
      <point x="256" y="690" type="line" smooth="yes"/>
      <point x="202" y="690"/>
      <point x="169" y="662"/>
    </contour>
    <contour>
      <point x="-8" y="0" type="line"/>
      <point x="294" y="0" type="line"/>
      <point x="312" y="103" type="line"/>
      <point x="10" y="103" type="line"/>
    </contour>
    <contour>
      <point x="58" y="431" type="line"/>
      <point x="381" y="431" type="line"/>
      <point x="399" y="534" type="line"/>
      <point x="75" y="534" type="line"/>
    </contour>
    <contour>
      <point x="393" y="0" type="line"/>
      <point x="536" y="0" type="line"/>
      <point x="592" y="331" type="line" smooth="yes"/>
      <point x="603" y="400"/>
      <point x="632" y="434"/>
      <point x="691" y="434" type="curve" smooth="yes"/>
      <point x="750" y="434"/>
      <point x="775" y="400"/>
      <point x="763" y="327" type="curve" smooth="yes"/>
      <point x="708" y="0" type="line"/>
      <point x="906" y="0" type="line"/>
      <point x="924" y="103" type="line"/>
      <point x="869" y="103" type="line"/>
      <point x="910" y="351" type="line" smooth="yes"/>
      <point x="931" y="473"/>
      <point x="875" y="544"/>
      <point x="770" y="544" type="curve" smooth="yes"/>
      <point x="696" y="544"/>
      <point x="657" y="510"/>
      <point x="632" y="437" type="curve"/>
      <point x="599" y="437" type="line"/>
      <point x="616" y="500"/>
      <point x="625" y="532"/>
      <point x="630" y="563" type="curve" smooth="yes"/>
      <point x="652" y="690" type="line"/>
      <point x="454" y="690" type="line"/>
      <point x="436" y="587" type="line"/>
      <point x="491" y="587" type="line"/>
    </contour>
    <contour>
      <point x="395" y="690" type="line"/>
      <point x="377" y="587" type="line"/>
      <point x="475" y="587" type="line"/>
      <point x="493" y="690" type="line"/>
    </contour>
  </outline>
</glyph>
<glyph name="f_t" format="1">
  <advance width="743"/>
  <outline>
    <contour>
      <point x="160" y="608" type="curve" smooth="yes"/>
      <point x="58" y="0" type="line"/>
      <point x="201" y="0" type="line"/>
      <point x="299" y="587" type="line"/>
      <point x="407" y="587" type="line"/>
      <point x="425" y="690" type="line"/>
      <point x="256" y="690" type="line" smooth="yes"/>
      <point x="202" y="690"/>
      <point x="169" y="662"/>
    </contour>
    <contour>
      <point x="-8" y="0" type="line"/>
      <point x="294" y="0" type="line"/>
      <point x="312" y="103" type="line"/>
      <point x="10" y="103" type="line"/>
    </contour>
    <contour>
      <point x="58" y="431" type="line"/>
      <point x="381" y="431" type="line"/>
      <point x="399" y="534" type="line"/>
      <point x="75" y="534" type="line"/>
    </contour>
    <contour>
      <point x="518" y="0" type="curve" smooth="yes"/>
      <point x="666" y="0" type="line"/>
      <point x="683" y="103" type="line"/>
      <point x="583" y="103" type="line"/>
      <point x="673" y="641" type="line"/>
      <point x="579" y="641" type="line"/>
      <point x="512" y="534" type="line"/>
      <point x="439" y="94" type="line" smooth="yes"/>
      <point x="429" y="33"/>
      <point x="456" y="0"/>
    </contour>
    <contour>
      <point x="418" y="431" type="line"/>
      <point x="738" y="431" type="line"/>
      <point x="756" y="534" type="line"/>
      <point x="436" y="534" type="line"/>
    </contour>
    <contour>
      <point x="358" y="534" type="line"/>
      <point x="340" y="431" type="line"/>
      <point x="448" y="431" type="line"/>
      <point x="465" y="534" type="line"/>
    </contour>
  </outline>
</glyph>
<glyph name="g.ss02" format="1">
  <advance width="547"/>
  <outline>
    <contour>
      <point x="-22" y="-132" type="line"/>
      <point x="287" y="-132" type="line" smooth="yes"/>
      <point x="399" y="-132"/>
      <point x="465" y="-92"/>
      <point x="480" y="-3" type="curve" smooth="yes"/>
      <point x="494" y="79"/>
      <point x="452" y="133"/>
      <point x="355" y="133" type="curve" smooth="yes"/>
      <point x="177" y="133" type="line" smooth="yes"/>
      <point x="158" y="133"/>
      <point x="150" y="141"/>
      <point x="153" y="155" type="curve" smooth="yes"/>
      <point x="155" y="168"/>
      <point x="164" y="173"/>
      <point x="184" y="173" type="curve" smooth="yes"/>
      <point x="266" y="173" type="line" smooth="yes"/>
      <point x="406" y="173"/>
      <point x="488" y="224"/>
      <point x="507" y="342" type="curve" smooth="yes"/>
      <point x="528" y="463"/>
      <point x="456" y="535"/>
      <point x="314" y="543" type="curve" smooth="yes"/>
      <point x="171" y="551"/>
      <point x="77" y="490"/>
      <point x="57" y="368" type="curve" smooth="yes"/>
      <point x="43" y="286"/>
      <point x="66" y="222"/>
      <point x="131" y="203" type="curve"/>
      <point x="126" y="174" type="line"/>
      <point x="62" y="173"/>
      <point x="24" y="152"/>
      <point x="16" y="103" type="curve" smooth="yes"/>
      <point x="8" y="54"/>
      <point x="38" y="23"/>
      <point x="113" y="23" type="curve" smooth="yes"/>
      <point x="311" y="23" type="line" smooth="yes"/>
      <point x="334" y="23"/>
      <point x="343" y="13"/>
      <point x="340" y="-5" type="curve" smooth="yes"/>
      <point x="337" y="-23"/>
      <point x="326" y="-29"/>
      <point x="302" y="-29" type="curve" smooth="yes"/>
      <point x="-4" y="-29" type="line"/>
    </contour>
    <contour>
      <point x="272" y="271" type="curve" smooth="yes"/>
      <point x="213" y="271"/>
      <point x="183" y="296"/>
      <point x="191" y="343" type="curve" smooth="yes"/>
      <point x="196" y="375" type="line" smooth="yes"/>
      <point x="204" y="421"/>
      <point x="231" y="440"/>
      <point x="291" y="440" type="curve" smooth="yes"/>
      <point x="350" y="440"/>
      <point x="380" y="415"/>
      <point x="372" y="368" type="curve" smooth="yes"/>
      <point x="367" y="336" type="line" smooth="yes"/>
      <point x="360" y="290"/>
      <point x="332" y="271"/>
    </contour>
    <contour>
      <point x="378" y="515" type="curve"/>
      <point x="403" y="486" type="line"/>
      <point x="409" y="519"/>
      <point x="425" y="534"/>
      <point x="453" y="534" type="curve" smooth="yes"/>
      <point x="563" y="534" type="line"/>
      <point x="580" y="637" type="line"/>
      <point x="495" y="637" type="line" smooth="yes"/>
      <point x="429" y="637"/>
      <point x="392" y="598"/>
    </contour>
  </outline>
</glyph>
<glyph name="periodcentered.loclCAT" format="1">
  <advance width="153"/>
  <outline>
    <contour>
      <point x="5" y="272" type="line"/>
      <point x="150" y="272" type="line"/>
      <point x="173" y="412" type="line"/>
      <point x="28" y="412" type="line"/>
    </contour>
  </outline>
</glyph>
<glyph name="questiondown.case" format="1">
  <advance width="543"/>
  <outline>
    <contour>
      <point x="366" y="440" type="curve" smooth="yes"/>
      <point x="370" y="499" type="line"/>
      <point x="286" y="499" type="line"/>
      <point x="276" y="457" type="line" smooth="yes"/>
      <point x="268" y="430"/>
      <point x="256" y="418"/>
      <point x="217" y="406" type="curve" smooth="yes"/>
      <point x="81" y="368"/>
      <point x="29" y="320"/>
      <point x="12" y="217" type="curve" smooth="yes"/>
      <point x="10" y="207" type="line" smooth="yes"/>
      <point x="-14" y="63"/>
      <point x="100" y="-10"/>
      <point x="251" y="-10" type="curve" smooth="yes"/>
      <point x="398" y="-10"/>
      <point x="487" y="58"/>
      <point x="526" y="228" type="curve"/>
      <point x="381" y="228" type="line"/>
      <point x="376" y="200" type="line" smooth="yes"/>
      <point x="366" y="139"/>
      <point x="328" y="104"/>
      <point x="256" y="104" type="curve" smooth="yes"/>
      <point x="194" y="104"/>
      <point x="145" y="132"/>
      <point x="154" y="187" type="curve" smooth="yes"/>
      <point x="158" y="210" type="line" smooth="yes"/>
      <point x="165" y="250"/>
      <point x="189" y="273"/>
      <point x="247" y="290" type="curve" smooth="yes"/>
      <point x="332" y="318"/>
      <point x="365" y="355"/>
    </contour>
    <contour>
      <point x="436" y="690" type="line"/>
      <point x="284" y="690" type="line"/>
      <point x="259" y="543" type="line"/>
      <point x="412" y="543" type="line"/>
    </contour>
  </outline>
</glyph>
<glyph name="t_t" format="1">
  <advance width="730"/>
  <outline>
    <contour>
      <point x="140" y="0" type="curve" smooth="yes"/>
      <point x="289" y="0" type="line"/>
      <point x="306" y="103" type="line"/>
      <point x="206" y="103" type="line"/>
      <point x="296" y="641" type="line"/>
      <point x="201" y="641" type="line"/>
      <point x="135" y="534" type="line"/>
      <point x="61" y="94" type="line" smooth="yes"/>
      <point x="52" y="33"/>
      <point x="79" y="0"/>
    </contour>
    <contour>
      <point x="41" y="431" type="line"/>
      <point x="361" y="431" type="line"/>
      <point x="379" y="534" type="line"/>
      <point x="59" y="534" type="line"/>
    </contour>
    <contour>
      <point x="506" y="0" type="curve" smooth="yes"/>
      <point x="654" y="0" type="line"/>
      <point x="671" y="103" type="line"/>
      <point x="571" y="103" type="line"/>
      <point x="661" y="641" type="line"/>
      <point x="567" y="641" type="line"/>
      <point x="500" y="534" type="line"/>
      <point x="427" y="94" type="line" smooth="yes"/>
      <point x="417" y="33"/>
      <point x="444" y="0"/>
    </contour>
    <contour>
      <point x="406" y="431" type="line"/>
      <point x="726" y="431" type="line"/>
      <point x="744" y="534" type="line"/>
      <point x="424" y="534" type="line"/>
    </contour>
    <contour>
      <point x="244" y="534" type="line"/>
      <point x="227" y="431" type="line"/>
      <point x="523" y="431" type="line"/>
      <point x="541" y="534" type="line"/>
    </contour>
  </outline>
</glyph>
<glyph name="zero.zero" format="1">
  <advance width="660"/>
  <outline>
    <contour>
      <point x="311" y="-10" type="curve" smooth="yes"/>
      <point x="484" y="-10"/>
      <point x="588" y="92"/>
      <point x="628" y="328" type="curve" smooth="yes"/>
      <point x="671" y="589"/>
      <point x="574" y="700"/>
      <point x="375" y="700" type="curve" smooth="yes"/>
      <point x="202" y="700"/>
      <point x="98" y="598"/>
      <point x="59" y="362" type="curve" smooth="yes"/>
      <point x="15" y="101"/>
      <point x="113" y="-10"/>
    </contour>
    <contour>
      <point x="311" y="104" type="curve" smooth="yes"/>
      <point x="220" y="104"/>
      <point x="179" y="158"/>
      <point x="198" y="268" type="curve" smooth="yes"/>
      <point x="224" y="427" type="line" smooth="yes"/>
      <point x="243" y="538"/>
      <point x="284" y="586"/>
      <point x="375" y="586" type="curve" smooth="yes"/>
      <point x="467" y="586"/>
      <point x="507" y="532"/>
      <point x="488" y="422" type="curve" smooth="yes"/>
      <point x="462" y="263" type="line" smooth="yes"/>
      <point x="443" y="152"/>
      <point x="403" y="104"/>
    </contour>
  </outline>
</glyph>
